<svg xmlns="http://www.w3.org/2000/svg" width="123.356" height="164.738" viewBox="0 0 123.356 164.738">
  <g id="Group_1088" data-name="Group 1088" transform="translate(-898 -285)">
    <g id="Group_13" data-name="Group 13" transform="translate(-0.94 -10.039)">
      <g id="Group_12" data-name="Group 12">
        <path id="Path_29" data-name="Path 29" d="M915.94,299.6c.042-.036.108-.063.124-.108a3.7,3.7,0,0,1,3.959-2.587c8.76.022,17.519.009,26.279.009,6.323,0,12.646.019,18.969-.013,1.616-.008,2.985.36,3.791,1.721,2.554-.811,5-1.738,7.513-2.357a38.723,38.723,0,0,1,26.213,2.458,3.5,3.5,0,0,1,2.271,3.544c-.039,1.623,0,3.248-.011,4.872,0,1.01-.506,1.615-1.307,1.612s-1.294-.605-1.3-1.619c-.007-1.538-.056-3.078.02-4.611a1.428,1.428,0,0,0-1.028-1.557,36.117,36.117,0,0,0-18.468-3.143,39.866,39.866,0,0,0-18.929,6.8,1.413,1.413,0,0,0-.729,1.33q.026,32.24.014,64.478v.881a6.72,6.72,0,0,0,.672-.317,41.059,41.059,0,0,1,10.082-4.612.874.874,0,0,0,.732-1.043c-.045-1.216-.029-2.436-.009-3.654a3.206,3.206,0,0,1,3.317-3.384c4.611-.038,9.223-.019,13.835-.007a2.167,2.167,0,0,1,1.5,3.82l-2.595,2.567c1.6.314,3.067.511,4.478.9,1.9.518,3.763,1.144,5.617,1.8,1.337.472,1.486.411,1.486-1.039q0-26.018,0-52.035a5.854,5.854,0,0,1,.016-.869,1.3,1.3,0,0,1,2.576-.013,3.517,3.517,0,0,1,.017.608q0,26.365,0,52.731c0,2.259-1.494,3.73-3.574,3.494a8.594,8.594,0,0,1-1.4-.431q-3.574-1.066-7.151-2.119a4.3,4.3,0,0,0-.739-.058c.28.306.462.518.658.715,1.393,1.4,2.8,2.781,4.18,4.188a2.632,2.632,0,0,1-.011,4q-1.98,2.019-4,4a2.619,2.619,0,0,1-3.938-.013c-2.327-2.3-4.63-4.632-7.037-7.044-1.113,1.126-2.195,2.2-3.251,3.3a2.238,2.238,0,0,1-2.642.766,2.276,2.276,0,0,1-1.352-2.4c.017-2.056.005-4.112.005-6.38-1.729.7-3.337,1.332-4.916,2.026-.187.082-.3.517-.307.79-.026,2.03-.006,4.061-.017,6.091a3.5,3.5,0,0,1-3.768,3.73q-23.016.006-46.031.011a3.763,3.763,0,0,1-3.816-2.807V361.039c.406-.63.921-1.09,1.722-.812.744.258.9.884.9,1.614q-.02,7.656-.007,15.313c0,1.51.138,1.651,1.624,1.651h45.157c.232,0,.523.085.684-.023.344-.228.871-.546.884-.847.082-1.836.041-3.677.041-5.731-1.367.9-2.551,1.72-3.782,2.462a3.144,3.144,0,0,1-1.514.492q-18.358.041-36.717.018a2.418,2.418,0,0,1-2.74-2.715q-.006-33.281,0-66.561a2.454,2.454,0,0,1,2.718-2.768c1.71-.024,3.422-.008,5.133,0a3.852,3.852,0,0,1,3,1.337c1.025,1.146,2.048,2.3,3.135,3.381a2.029,2.029,0,0,0,1.265.574q5.305.069,10.614,0a2.034,2.034,0,0,0,1.273-.558c1.069-1.062,2.081-2.183,3.075-3.317a4.018,4.018,0,0,1,3.223-1.423c1.769.013,3.539.028,5.307-.015a2.779,2.779,0,0,0,1.276-.392c1.325-.774,2.617-1.6,3.921-2.414.2-.127.4-.266.6-.4l-.042-.238a13.06,13.06,0,0,0-1.332-.133q-22.578-.011-45.157-.005c-1.5,0-1.647.152-1.647,1.639q0,26.841.005,53.683c0,.735-.064,1.406-.868,1.716-.822.316-1.295-.193-1.747-.747Zm44.71,72.928V305.736c-1.679,0-3.3-.054-4.914.032a2.517,2.517,0,0,0-1.483.676c-1.081,1.048-2.078,2.185-3.087,3.3a3.836,3.836,0,0,1-3.006,1.31q-5.4-.012-10.79,0a3.846,3.846,0,0,1-3.012-1.3c-1.032-1.14-2.071-2.273-3.133-3.384a1.654,1.654,0,0,0-.909-.6c-1.815-.056-3.634-.027-5.447-.027v66.772Zm30.319-11.567c-.348-.041-.455-.064-.563-.064-3.972,0-7.945.011-11.918-.012-.85,0-1.1.365-1.094,1.163.023,3.885.01,7.771.013,11.657a5.435,5.435,0,0,0,.06.572.981.981,0,0,0,.226-.1c.906-.9,1.807-1.8,2.714-2.7,1.142-1.129,2.147-1.126,3.3.014.8.794,1.6,1.6,2.4,2.4l4.8,4.808,4.293-4.31c-1.967-1.958-4-3.979-6.034-6.007-2.777-2.772-2.777-2.893-.031-5.636C989.692,362.2,990.255,361.658,990.969,360.962Z" fill="#b2ce5b"/>
        <path id="Path_30" data-name="Path 30" d="M986.263,328.479a39.192,39.192,0,0,1,10.057,1.292c.168.043.337.085.5.141a1.307,1.307,0,0,1,.994,1.587,1.329,1.329,0,0,1-1.7.934c-1.672-.344-3.332-.775-5.019-1.006a37.732,37.732,0,0,0-20.3,2.91c-.266.114-.529.237-.8.348-.905.377-1.7.147-1.986-.576a1.323,1.323,0,0,1,.909-1.788c1.605-.66,3.206-1.347,4.854-1.88A39.863,39.863,0,0,1,986.263,328.479Z" fill="#b2ce5b"/>
        <path id="Path_31" data-name="Path 31" d="M986.275,318.646a49.557,49.557,0,0,1,10.073,1.5c.168.045.336.09.5.147a1.292,1.292,0,1,1-.676,2.492c-1.961-.368-3.908-.857-5.885-1.088a37.652,37.652,0,0,0-19.6,3.043c-.292.127-.575.276-.873.385a1.332,1.332,0,0,1-1.779-.614,1.306,1.306,0,0,1,.765-1.778,37.149,37.149,0,0,1,9.554-3.092C980.979,319.2,983.634,318.971,986.275,318.646Z" fill="#b2ce5b"/>
        <path id="Path_32" data-name="Path 32" d="M997.867,311.909a1.35,1.35,0,0,1-1.823,1.229c-1.33-.285-2.649-.632-3.989-.851a37.8,37.8,0,0,0-21.084,2.7c-.373.156-.737.337-1.114.484a1.333,1.333,0,0,1-1.834-.62,1.279,1.279,0,0,1,.814-1.759c2.438-.906,4.856-1.913,7.361-2.582a38.794,38.794,0,0,1,20.356.054C997.3,310.76,997.813,311.124,997.867,311.909Z" fill="#b2ce5b"/>
        <path id="Path_33" data-name="Path 33" d="M984.174,339.57c-.006.73-.475,1.2-1.353,1.294a40.082,40.082,0,0,0-11.18,2.756c-.59.242-1.167.512-1.759.748a1.333,1.333,0,0,1-1.851-.587,1.315,1.315,0,0,1,.785-1.776,41.34,41.34,0,0,1,11.268-3.412c.859-.13,1.722-.252,2.587-.324A1.292,1.292,0,0,1,984.174,339.57Z" fill="#b2ce5b"/>
        <path id="Path_34" data-name="Path 34" d="M942.75,302.735a1.3,1.3,0,0,1,1.4,1.32,1.312,1.312,0,0,1-1.353,1.287,1.33,1.33,0,0,1-1.446-1.285A1.307,1.307,0,0,1,942.75,302.735Z" fill="#b2ce5b"/>
        <path id="Path_35" data-name="Path 35" d="M927.686,339.2a15.074,15.074,0,1,1,15.161,15.045A15.056,15.056,0,0,1,927.686,339.2Zm15.06-12.47a12.453,12.453,0,1,0,12.478,12.411A12.441,12.441,0,0,0,942.746,326.729Z" fill="#b2ce5b"/>
        <path id="Path_36" data-name="Path 36" d="M944.067,344.962c.2.037.282.059.366.067,1.034.087,1.6.58,1.558,1.368s-.629,1.239-1.671,1.245-2.088.006-3.132,0-1.625-.444-1.66-1.247.506-1.283,1.55-1.365c.085-.007.169-.029.315-.054v-6.5a5.5,5.5,0,0,1-.826-.2,1.077,1.077,0,0,1-.754-1.377,1.884,1.884,0,0,1,1.067-1.048,5.367,5.367,0,0,1,2.073-.024c.887.12,1.116.8,1.114,1.605q-.006,3.262,0,6.526Z" fill="#b2ce5b"/>
        <path id="Path_37" data-name="Path 37" d="M942.739,333.32a1.388,1.388,0,0,1-1.537-1.311c-.007-.8.63-1.311,1.608-1.3.914.014,1.514.548,1.489,1.324A1.383,1.383,0,0,1,942.739,333.32Z" fill="#b2ce5b"/>
      </g>
    </g>
    <g id="Group_16" data-name="Group 16" transform="translate(-0.822 -11.801)">
      <g id="Group_15" data-name="Group 15">
        <g id="Group_14" data-name="Group 14">
          <path id="Path_38" data-name="Path 38" d="M1021.178,316.8v83.06A60.678,60.678,0,0,1,960.5,460.539h0a60.678,60.678,0,0,1-60.678-60.678V316.8" fill="none" stroke="#b2ce5b" stroke-miterlimit="10" stroke-width="2"/>
        </g>
      </g>
    </g>
  </g>
</svg>
