<svg xmlns="http://www.w3.org/2000/svg" width="123.356" height="165.738" viewBox="0 0 123.356 165.738">
  <g id="Group_1086" data-name="Group 1086" transform="translate(-534 -302)">
    <g id="Group_30" data-name="Group 30" transform="translate(16.553 6.199)">
      <g id="Group_29" data-name="Group 29">
        <path id="Path_65" data-name="Path 65" d="M639.8,316.8v83.06a60.679,60.679,0,0,1-60.678,60.678h0a60.678,60.678,0,0,1-60.678-60.678V316.8" fill="none" stroke="#5fb7b1" stroke-miterlimit="10" stroke-width="2"/>
      </g>
    </g>
    <g id="Group_31" data-name="Group 31" transform="translate(14.223 10.229)">
      <path id="Path_66" data-name="Path 66" d="M625.988,355.479a2.351,2.351,0,0,0-.17.4,8.344,8.344,0,0,1-8.414,6.732q-14.918.02-29.834,0h-1.1c.191.338.31.573.451.793,2.447,3.826,4.911,7.641,7.332,11.484a1.388,1.388,0,0,0,1.392.737c1.89-.045,3.782-.022,5.673-.014a1.849,1.849,0,1,1,.014,3.655q-22.192.008-44.385,0a1.849,1.849,0,1,1-.035-3.656c1.983-.009,3.966.015,5.949-.02a1.23,1.23,0,0,0,.9-.4c2.64-4.064,5.245-8.151,7.856-12.234a2.044,2.044,0,0,0,.115-.349h-1.02q-14.734,0-29.468,0c-5.462,0-8.974-3.517-8.975-8.986q0-23.336,0-46.672c0-5.416,3.522-8.953,8.914-8.953q22.009,0,44.019,0c.244,0,.489-.01.732.007a1.822,1.822,0,0,1,.01,3.644c-.3.021-.61.009-.915.009H541.187c-3.373,0-5.264,1.892-5.264,5.269q0,23.382,0,46.765c0,3.37,1.894,5.257,5.277,5.257q37.932,0,75.866,0c3.37,0,5.26-1.9,5.261-5.274q0-13.728,0-27.455a1.883,1.883,0,0,1,1.306-2.061c.875-.248,1.52.051,2.208,1.017.03.043.1.061.145.09Zm-35.716,20.11a2.234,2.234,0,0,0-.128-.335c-2.593-4.059-5.18-8.121-7.8-12.162a1.228,1.228,0,0,0-.874-.453c-1.493-.046-2.99.009-4.483-.036a1.244,1.244,0,0,0-1.241.683c-2.444,3.863-4.923,7.706-7.387,11.557-.139.218-.247.456-.4.746Z" fill="#5fb7b1"/>
      <path id="Path_67" data-name="Path 67" d="M625.988,316.121c-.068.162-.152.32-.2.487a5.8,5.8,0,0,1-5.689,4.307c-3.629.034-7.258-.007-10.886.034a2.021,2.021,0,0,0-1.257.518c-1.866,1.8-3.689,3.641-5.512,5.483-.713.721-1.431,1.385-2.548.9-1.1-.482-1.145-1.459-1.134-2.47.016-1.43,0-2.861,0-4.451-.535,0-1.006,0-1.477,0a5.808,5.808,0,0,1-6.106-6.079q-.025-8.508,0-17.016a5.826,5.826,0,0,1,6.144-6.052q11.161-.017,22.322,0c3.283,0,5.247,1.493,6.215,4.7a1.518,1.518,0,0,0,.126.243Zm-23.566,5.372.269.115c1.082-1.111,2.189-2.2,3.236-3.342a3.008,3.008,0,0,1,2.425-1.014c3.84.033,7.682.023,11.522.008a2.2,2.2,0,0,0,2.449-2.426q.015-8.459,0-16.918a2.222,2.222,0,0,0-2.412-2.475q-11.34-.017-22.679,0a2.187,2.187,0,0,0-2.39,2.392q-.018,8.5,0,17.01a2.179,2.179,0,0,0,2.442,2.419c1.067.016,2.135-.024,3.2.015a1.818,1.818,0,0,1,1.934,1.962C602.44,319.99,602.422,320.742,602.422,321.493Z" fill="#5fb7b1"/>
      <path id="Path_68" data-name="Path 68" d="M585.257,329.578c4.038,2.166,6.829,5.344,7.613,9.814a51.462,51.462,0,0,1,.34,8.38c.009.912-.828,1.481-1.872,1.491-1.647.017-3.294.005-4.942.005q-9.747,0-19.494,0c-1.753,0-2.4-.61-2.362-2.366a52.729,52.729,0,0,1,.325-7.111,13.627,13.627,0,0,1,6.9-9.749c.254-.153.514-.3.784-.452a10.231,10.231,0,1,1,12.71-.012ZM568.27,345.556h21.321c0-1.263.076-2.481-.014-3.686a10.686,10.686,0,0,0-16.813-8.1C568.65,336.626,567.829,340.834,568.27,345.556Zm10.616-17.522a6.511,6.511,0,1,0-6.511-6.507A6.491,6.491,0,0,0,578.886,328.034Z" fill="#5fb7b1"/>
    </g>
  </g>
</svg>
