<svg xmlns="http://www.w3.org/2000/svg" width="123.356" height="165.738" viewBox="0 0 123.356 165.738">
  <g id="Group_1089" data-name="Group 1089" transform="translate(-1088 -284)">
    <g id="Group_17" data-name="Group 17" transform="translate(-4.161 -9.988)">
      <path id="Path_39" data-name="Path 39" d="M1174.153,293.988c.906.2,1.828.358,2.717.624,5.836,1.747,9.252,5.912,11.237,11.445a19.83,19.83,0,0,1,1.022,7.7c.329.016.6.04.877.04,1.988,0,3.976-.006,5.964.005a1.716,1.716,0,1,1,.032,3.408c-2.244.012-4.488.018-6.731-.007a.742.742,0,0,0-.876.655,19.8,19.8,0,0,1-5.53,9.145q-11.548,11.122-23.051,22.291c-1.186,1.147-1.946,1.146-3.124.006q-5.329-5.162-10.664-10.319a1.626,1.626,0,0,1-.6-1.893,2.14,2.14,0,0,1,1.308-1.137,2.4,2.4,0,0,1,1.7.659c3.063,2.883,6.07,5.826,9.087,8.758a7.6,7.6,0,0,1,.613.783c.7-.667,1.276-1.21,1.846-1.761q10.419-10.083,20.834-20.167a15.8,15.8,0,0,0,4.222-7.008c-1.685,0-3.294-.017-4.9.021a1.056,1.056,0,0,0-.639.452c-1.2,1.586-2.373,3.194-3.566,4.787-1.1,1.478-2.27,1.453-3.329-.059-.81-1.157-1.617-2.316-2.488-3.564-.91,1.82-1.785,3.538-2.629,5.271-.368.754-.808,1.4-1.733,1.427s-1.4-.591-1.8-1.335c-1.714-3.207-3.448-6.4-5.176-9.6-.147-.272-.309-.536-.524-.906-.192.327-.348.574-.486.83-1.746,3.222-3.5,6.441-5.228,9.672-.4.746-.868,1.364-1.792,1.341s-1.364-.668-1.732-1.425c-.83-1.711-1.7-3.4-2.634-5.272-.507.729-.949,1.362-1.39,2-.406.583-.8,1.174-1.219,1.749a1.731,1.731,0,0,1-3.08.043c-1.2-1.589-2.39-3.183-3.551-4.8a1.338,1.338,0,0,0-1.262-.642c-1.417.044-2.837.014-4.387.014.116.4.19.747.311,1.071a16.157,16.157,0,0,0,4.376,6.416c.358.325.71.659,1.033,1.017a1.711,1.711,0,0,1,.009,2.386,1.654,1.654,0,0,1-2.377.031,20.437,20.437,0,0,1-6.76-10.32c-.049-.187-.126-.367-.207-.6h-6.65c-.312,0-.625.01-.937-.007a1.683,1.683,0,0,1-1.7-1.661,1.666,1.666,0,0,1,1.712-1.736c2.017-.03,4.033-.011,6.05-.011h.9a42.631,42.631,0,0,1,.405-4.7c1.321-6.738,4.7-11.89,11.42-14.314a29.566,29.566,0,0,1,3.379-.8h3.239a3.023,3.023,0,0,0,.484.139,17.141,17.141,0,0,1,7.89,2.92c1.463,1.012,2.8,2.211,4.254,3.378.427-.386.913-.815,1.387-1.257a18.915,18.915,0,0,1,8.887-4.751c.713-.159,1.433-.287,2.15-.429Zm11.781,19.814a44.1,44.1,0,0,0-.749-5.529c-1.169-4.423-3.5-8.092-7.914-9.85-5.371-2.137-10.24-.833-14.624,2.707-.817.659-1.548,1.427-2.373,2.075a2.923,2.923,0,0,1-4.04.009c-.718-.555-1.357-1.21-2.047-1.8-3.957-3.4-8.458-4.863-13.588-3.476-4.8,1.3-7.454,4.851-9.023,9.338a14.833,14.833,0,0,0-.747,6.528c1.812,0,3.577.105,5.324-.031a3.48,3.48,0,0,1,3.593,1.836c.7,1.146,1.585,2.178,2.429,3.315,1-1.436,1.918-2.768,2.849-4.093,1.046-1.489,2.464-1.375,3.294.264.73,1.445,1.446,2.9,2.173,4.344.1.2.238.389.4.651,1.894-3.508,3.735-6.9,5.559-10.308.406-.759.848-1.446,1.824-1.431.929.015,1.362.665,1.756,1.4,1.688,3.157,3.4,6.3,5.1,9.449.143.265.3.52.532.9.859-1.712,1.655-3.3,2.454-4.886.926-1.841,2.283-1.93,3.473-.226.889,1.273,1.774,2.549,2.729,3.922.887-1.189,1.776-2.226,2.484-3.375a3.368,3.368,0,0,1,3.454-1.769C1182.034,313.9,1183.826,313.8,1185.934,313.8Z" fill="#f90"/>
      <path id="Path_40" data-name="Path 40" d="M1152.509,381.416c-6.968-1.908-13.926-3.854-20.911-5.694a29.388,29.388,0,0,0-4.384-.5,4.62,4.62,0,0,1-4.7,4.336c-2.215.012-4.431.024-6.646,0a4.453,4.453,0,0,1-4.67-4.591q-.075-7.981,0-15.965a4.471,4.471,0,0,1,4.7-4.569c2.159-.009,4.318.008,6.476,0a4.67,4.67,0,0,1,4.245,2.373,1.151,1.151,0,0,0,.849.44,5.988,5.988,0,0,0,3.326-1.155,18.372,18.372,0,0,1,7.038-2.874,23.524,23.524,0,0,1,10.686.826c2.483.7,4.952,1.453,7.43,2.174a6.57,6.57,0,0,1,4.692,4.711c.312-.14.592-.255.862-.389,4.447-2.208,8.9-4.408,13.336-6.635a6.988,6.988,0,0,1,4.86-.739,5.706,5.706,0,0,1,4.537,4.566,6.06,6.06,0,0,1-2.225,6.244c-.948.809-2.006,1.49-3.023,2.217q-8.528,6.095-17.06,12.184a17.409,17.409,0,0,1-6.863,3.04Zm-25.324-9.711a58.576,58.576,0,0,1,6.474.96c4.99,1.3,9.921,2.831,14.888,4.222a31.076,31.076,0,0,0,4.805,1.066c2.493.285,4.569-.929,6.512-2.308q9.76-6.928,19.478-13.918a4.8,4.8,0,0,0,1.225-1.276,2.505,2.505,0,0,0,.056-2.749,2.333,2.333,0,0,0-2.353-1.23,5.8,5.8,0,0,0-1.942.529q-7.716,3.787-15.391,7.653a2.429,2.429,0,0,0-.941.9,6.367,6.367,0,0,1-6.907,3.065c-.83-.179-1.641-.448-2.457-.684-2.451-.709-4.9-1.41-7.349-2.14a1.719,1.719,0,0,1-1.307-2.346,1.775,1.775,0,0,1,2.368-.894c3.106.894,6.2,1.819,9.314,2.691a2.93,2.93,0,0,0,1.7-5.609c-3.422-1.019-6.841-2.078-10.318-2.874a14.818,14.818,0,0,0-11.715,1.791,11.362,11.362,0,0,1-5.829,2.147,1.019,1.019,0,0,0-.306.121Zm-3.442-4.719c0-2.529,0-5.058,0-7.587,0-1.177-.361-1.543-1.5-1.546q-3.063-.009-6.125,0c-1.15,0-1.517.364-1.518,1.542q-.012,7.629,0,15.258c0,1.136.362,1.493,1.471,1.5q3.107.014,6.211,0c1.113-.005,1.461-.36,1.464-1.493C1123.747,372.1,1123.742,369.543,1123.743,366.986Z" fill="#f90"/>
      <path id="Path_41" data-name="Path 41" d="M1143.2,332.215a1.685,1.685,0,1,1-1.754-1.676A1.684,1.684,0,0,1,1143.2,332.215Z" fill="#f90"/>
    </g>
    <g id="Group_20" data-name="Group 20" transform="translate(-1.51 -11.801)">
      <g id="Group_19" data-name="Group 19">
        <g id="Group_18" data-name="Group 18">
          <path id="Path_42" data-name="Path 42" d="M1211.866,316.8v83.06a60.679,60.679,0,0,1-60.678,60.678h0a60.678,60.678,0,0,1-60.678-60.678V316.8" fill="none" stroke="#f90" stroke-miterlimit="10" stroke-width="2"/>
        </g>
      </g>
    </g>
  </g>
</svg>
