<?xml version="1.0" encoding="utf-8"?>
<!-- Generator: Adobe Illustrator 27.2.0, SVG Export Plug-In . SVG Version: 6.00 Build 0)  -->
<svg version="1.1" id="圖層_1" xmlns="http://www.w3.org/2000/svg" xmlns:xlink="http://www.w3.org/1999/xlink" x="0px" y="0px"
	 viewBox="0 0 107.8 50" style="enable-background:new 0 0 107.8 50;" xml:space="preserve">
<style type="text/css">
	.st0{fill:#FFFFFF;}
	.st1{fill:#12335E;}
	.st2{fill:#F0BC1D;}
	.st3{fill:#30B1D2;}
	.st4{fill:#3E7B43;}
	.st5{fill:#B88730;}
	.st6{fill:#E73F2A;}
	.st7{fill:#EB672C;}
	.st8{fill:#B91C2D;}
	.st9{fill:#991D41;}
	.st10{enable-background:new    ;}
</style>
<g>
	<g id="组_7" transform="translate(-96 -448)">
		<g id="组_6">
			<g id="路径_1">
				<path class="st0" d="M125.5,464h-1.1v-1c0-1.3-1-2.4-2.3-2.6c0.5-0.4,0.9-0.9,1.1-1.4c0.3-0.8,0.3-1.6,0-2.4
					c-0.9-2.1-2.3-3.9-4-5.3c-2.5-2.1-5.7-3.3-9-3.3c-0.5,0-0.9,0-1.4,0.1c-1.2,0.1-2.3,0.4-3.5,0.8h0l-0.2,0.1
					c-6,2.3-9.7,8.3-9.1,14.7c0.1,0.9,0.3,1.8,0.5,2.7v0l0,0.2c0.8,2.7,2.4,5,4.6,6.8l0.4,0.3c-0.9,0-1.7,0.4-2.3,1.1
					c-1.6,2-2.7,4.4-3.1,6.9l0,0l0,0.2v0c-0.2,1.1-0.2,2.3-0.1,3.4c0.7,7.3,6.8,12.9,14.2,12.9l0,0c2.5,0,4.9-0.6,7-1.9l0.3-0.1l0,0
					c1.4-0.8,2.7-1.9,3.7-3.2c3.4-4.1,4.2-9.9,2.1-14.8l0-0.1l0,0c-0.9-2-2.2-3.8-4-5.2l-9.2-7.6c-0.6-0.5-1.3-0.7-2-0.7
					c-0.9,0-1.8,0.4-2.4,1.1c-0.5,0.6-0.8,1.5-0.7,2.3c0,0.2,0,0.3,0.1,0.5c-0.9-0.8-1.7-1.8-2.2-2.9c-0.3-0.8-0.6-1.6-0.6-2.5
					c-0.2-2.1,0.4-4.2,1.8-5.8c0.6-0.7,1.3-1.3,2.1-1.8c1-0.6,2.1-1,3.3-1.1c0.3,0,0.5,0,0.8,0c1.8,0,3.6,0.6,5.1,1.8
					c0.5,0.4,0.9,0.8,1.3,1.3l0,0c0.4,0.5,0.7,1.1,1,1.6c0.5,1.1,1.5,1.8,2.6,1.9c-0.6,0.5-1,1.3-1,2.1v1.1h-1
					c-1.5-0.1-2.7,1.1-2.8,2.5c-0.1,1.5,1.1,2.7,2.5,2.8c0.1,0,0.1,0,0.2,0h1.1v1.1c-0.1,1.5,1.1,2.7,2.5,2.8
					c1.5,0.1,2.7-1.1,2.8-2.5c0-0.1,0-0.1,0-0.2v-1.1h1.1c1.5,0,2.7-1.2,2.7-2.7C128.2,465.2,127,464,125.5,464L125.5,464z
					 M107.6,491.3L107.6,491.3c-0.9-0.3-1.7-0.8-2.4-1.4c-3.4-2.8-3.9-7.8-1.1-11.2c0,0,0,0,0,0c0.5-0.6,0.8-1.5,0.7-2.3
					c0-0.1,0-0.1,0-0.2l1.5,1.3l0,0l4.1,3.4c0.6,0.5,1.3,0.7,2,0.7l0,0c0.9,0,1.8-0.4,2.4-1.1c0.5-0.6,0.8-1.5,0.7-2.3
					c0-0.2,0-0.3-0.1-0.5c1.7,1.5,2.8,3.6,2.9,5.9c0.2,4.4-3.3,8.1-7.7,8.3c-0.1,0-0.2,0-0.3,0C109.4,491.8,108.5,491.6,107.6,491.3
					z"/>
			</g>
			<g id="组_5" transform="translate(455.224 471.223)">
				<g id="组_1" transform="translate(19.491 12.32)">
					<g id="路径_2">
						<path class="st1" d="M-349.2-15.4h-7.4c-0.8,0-1.4-0.6-1.4-1.4c0-0.8,0.6-1.4,1.4-1.4h7.4c0.8,0,1.4,0.6,1.4,1.4
							C-347.7-16.1-348.4-15.4-349.2-15.4z"/>
					</g>
					<g id="路径_3">
						<path class="st1" d="M-352.9-11.7c-0.8,0-1.4-0.6-1.4-1.4v0v-7.4c0-0.8,0.6-1.4,1.4-1.4s1.4,0.6,1.4,1.4v7.4
							C-351.4-12.4-352.1-11.7-352.9-11.7C-352.9-11.7-352.9-11.7-352.9-11.7z"/>
					</g>
				</g>
				<g id="组_2" transform="translate(0.009 16.49)">
					<g id="路径_4">
						<path class="st2" d="M-333-9.2c-0.8-1.9-2.1-3.5-3.7-4.8l-9.2-7.6c-0.8-0.7-2-0.6-2.7,0.2c-0.7,0.8-0.6,2,0.2,2.7c0,0,0,0,0,0
							l1.2,1c2.4,1.5,5,2.8,7.6,4C-336.5-12.3-334.1-10.8-333-9.2z"/>
					</g>
					<g id="路径_5">
						<path class="st3" d="M-348.1,4.7c-1-0.4-1.9-0.9-2.8-1.6c-1.9-1.6-3.1-3.8-3.3-6.2c-0.2-2.4,0.5-4.9,2.1-6.8
							c0.7-0.8,0.5-2-0.3-2.7c-0.8-0.7-2-0.5-2.7,0.3c-1.5,1.8-2.5,4-2.8,6.3C-357.2-0.6-353.3,3.7-348.1,4.7z"/>
					</g>
					<g id="路径_6">
						<path class="st4" d="M-335.7-4.3c0.1,2.2-0.7,4.4-2.1,6.2c-2.5,3-6.6,4.1-10.2,2.8c-5.2-1.1-9.2-5.4-9.8-10.7
							c-0.2,1.1-0.2,2.2-0.1,3.3c0.6,6.7,6.2,11.8,13,11.8c2.3,0,4.5-0.6,6.4-1.7C-336.4,3.9-335.4-0.2-335.7-4.3z"/>
					</g>
					<g id="路径_7">
						<path class="st5" d="M-333-9.2c-1.1-1.6-3.5-3.1-6.5-4.5c-2.6-1.2-5.1-2.5-7.6-4l8,6.6c2,1.7,3.3,4.2,3.4,6.8
							c0.3,4.1-0.6,8.2-2.8,11.7C-332.7,4.1-330.3-3.1-333-9.2L-333-9.2z"/>
					</g>
				</g>
				<g id="组_4" transform="translate(0 0)">
					<g id="路径_8">
						<path class="st6" d="M-357.4-5.1c0.7,2.4,2.2,4.6,4.2,6.2l5.1,4.2c-2.2-3.3-3.9-6.8-5.2-10.5c-0.4-0.9-0.6-1.9-0.7-2.8
							c-0.2-2.4,0.5-4.9,2.1-6.8c0.7-0.8,1.5-1.5,2.4-2.1C-357-14.6-357.4-7.1-357.4-5.1z"/>
					</g>
					<g id="路径_9">
						<path class="st7" d="M-344,8.7c0.3,0.3,0.8,0.4,1.2,0.4c1.1,0,1.9-0.8,1.9-1.9c0-0.6-0.3-1.1-0.7-1.5l-9.2-7.6
							c-1.1-0.9-2-2.1-2.6-3.4c1.3,3.7,3.1,7.2,5.2,10.5L-344,8.7z"/>
					</g>
					<g id="路径_10">
						<path class="st8" d="M-349.6-21.1c-5.5,2.1-8.9,7.6-8.3,13.5c0.1,0.9,0.3,1.8,0.5,2.6c0-2,0.4-9.5,7.8-11.8
							c3.3-2,7.6-1.6,10.6,0.8c0.5,0.5,1,1,1.5,1.5C-340.1-18.8-344.7-21.3-349.6-21.1z"/>
					</g>
					<g id="组_3" transform="translate(8.4)">
						<g id="路径_11">
							<path class="st9" d="M-341.4-14.2c-2.3-5.2-7.6-8.3-13.2-7.7c-1.2,0.1-2.3,0.4-3.4,0.8c4.9-0.2,9.5,2.4,12,6.6
								c0.4,0.6,0.8,1.2,1.1,1.9c0.4,1,1.5,1.5,2.5,1.1c1-0.4,1.5-1.5,1.1-2.5C-341.4-14.1-341.4-14.2-341.4-14.2L-341.4-14.2z"/>
						</g>
					</g>
				</g>
			</g>
		</g>
	</g>
	<g class="st10">
		<path class="st1" d="M48.7,25c0,0.2-0.2,0.6-0.7,1c-0.5,0.5-1.1,1.1-2,1.7c-0.9,0.7-1.6,1.2-2.3,1.5c-0.7,0.4-1.2,0.5-1.5,0.5
			c-0.2,0-0.4-0.1-0.6-0.3c-0.2-0.2-0.2-0.4-0.2-0.7c0-0.2,0.1-0.3,0.3-0.5c0.2-0.2,0.5-0.4,1-0.7c1.5-0.9,2.8-1.8,3.9-2.8
			c0.2-0.2,0.5-0.4,0.7-0.5s0.4-0.2,0.5-0.2C48.4,24.2,48.7,24.4,48.7,25z M41.5,22c0-0.6,0.4-0.9,1.1-0.9h3.9v-5.8h-3
			c-0.7,0-1.1-0.3-1.1-0.9c0-0.6,0.4-0.9,1.1-0.9h3V11c0-0.8,0.3-1.2,1-1.2s1,0.4,1,1.2v2.5h6.1V11c0-0.8,0.3-1.2,1-1.2
			c0.6,0,1,0.4,1,1.2v2.5h3.1c0.7,0,1.1,0.3,1.1,0.9c0,0.6-0.4,0.9-1.1,0.9h-3.1v5.8h4c0.4,0,0.7,0.1,0.8,0.2s0.3,0.4,0.3,0.7
			c0,0.6-0.4,0.8-1.1,0.8H42.6C41.9,22.8,41.5,22.5,41.5,22z M48.4,15.3v5.8h6.1v-5.8H48.4z M61.6,28.9c0,0.3-0.1,0.5-0.2,0.7
			c-0.2,0.2-0.4,0.2-0.7,0.2c-0.7,0-1.9-0.7-3.8-2.2c-0.8-0.6-1.5-1.2-2-1.7c-0.5-0.5-0.7-0.8-0.7-1c0-0.3,0.1-0.5,0.2-0.6
			c0.1-0.1,0.4-0.2,0.7-0.2c0.2,0,0.6,0.2,1.2,0.7c1.7,1.4,3.1,2.3,4.2,2.9C61.2,28.2,61.6,28.5,61.6,28.9z"/>
		<path class="st1" d="M84.7,24.9c0,0.5-0.3,0.8-0.9,0.8h-8.2v2.4c0,0.7-0.2,1.2-0.5,1.5c-0.3,0.3-0.8,0.5-1.6,0.5h-1.8
			c-0.7,0-1.1-0.3-1.1-0.9c0-0.6,0.4-0.9,1.1-0.9h1.2c0.5,0,0.7-0.2,0.7-0.7v-1.8h-8.4c-0.6,0-0.9-0.3-0.9-0.8
			c0-0.3,0.1-0.5,0.2-0.6c0.2-0.1,0.4-0.2,0.7-0.2h8.4c0-0.6,0.1-1,0.3-1.2c0.2-0.2,0.6-0.5,1.1-0.6l1.5-0.5
			c1.1-0.3,1.8-0.5,2.2-0.7H67.1c-0.6,0-0.9-0.3-0.9-0.8c0-0.5,0.3-0.8,0.9-0.8h13.3c0.9,0,1.4,0.3,1.6,0.9c0,0.1,0.1,0.2,0.1,0.4
			c0,0.3-0.1,0.5-0.3,0.7c-0.2,0.2-0.5,0.4-0.9,0.6c-1.1,0.4-2.1,0.7-3.3,1.1c-0.7,0.2-1.3,0.4-1.6,0.5c-0.3,0.1-0.5,0.3-0.5,0.5
			h8.2C84.4,24.1,84.7,24.4,84.7,24.9z M64.5,12.3c0-0.5,0.3-0.8,0.9-0.8h7.9v-0.9c0-0.6,0.4-1,1.1-1c0.7,0,1.1,0.3,1.1,1v0.9h8.1
			c0.6,0,0.9,0.3,0.9,0.8s-0.3,0.8-0.9,0.8H65.4C64.8,13.1,64.5,12.9,64.5,12.3z M80.3,14c0.6,0,1,0.1,1.3,0.4
			c0.3,0.3,0.4,0.6,0.4,1.2v1.6c0,1.1-0.6,1.6-1.7,1.5H68.6c-0.6,0-1-0.1-1.3-0.4c-0.3-0.2-0.4-0.6-0.4-1.2v-1.6
			c0-1.1,0.6-1.6,1.8-1.5H80.3z M80.1,16c0-0.3-0.2-0.5-0.5-0.5H69.3c-0.3,0-0.5,0.2-0.5,0.5v0.6c0,0.3,0.2,0.5,0.5,0.5h10.3
			c0.3,0,0.5-0.2,0.5-0.5V16z"/>
		<path class="st1" d="M91.2,29.9c-0.1-0.2-0.2-0.4-0.2-0.8v-9.6c-0.4,1.3-0.9,2.5-1.5,3.6c-0.6,1.1-1.1,1.7-1.5,1.7
			c-0.5,0-0.8-0.3-0.8-1c0-0.3,0.1-0.6,0.3-0.9c1.6-2.1,2.6-4.4,3.2-7h-2.3c-0.7,0-1.1-0.3-1.1-0.9s0.4-0.9,1.1-0.9H91v-3.6
			c0-0.4,0.1-0.6,0.2-0.8s0.3-0.2,0.6-0.2c0.3,0,0.5,0.1,0.7,0.2s0.2,0.4,0.2,0.8v3.6h2.1c0.7,0,1.1,0.3,1.1,0.9S95.4,16,94.7,16
			h-2.1v2.7c0.2-0.1,0.3-0.2,0.5-0.2c0.3,0,0.8,0.5,1.5,1.4c0.7,1,1.1,1.6,1.1,2.1c0,0.3-0.1,0.5-0.2,0.6s-0.3,0.2-0.6,0.2
			c-0.2,0-0.3-0.1-0.4-0.2c-0.1-0.1-0.3-0.3-0.4-0.6c-0.3-0.6-0.8-1.3-1.5-2.2v9.4c0,0.4-0.1,0.6-0.2,0.8s-0.4,0.2-0.7,0.2
			C91.5,30.2,91.3,30.1,91.2,29.9z M93.9,28.7c0-0.3,0.3-0.7,0.8-1.3c1.2-1.1,1.9-3.3,2-6.5c0-0.3,0-0.7,0-1.3l0-2.6l0-3.1v-0.9
			c0-1.5,0.7-2.3,2-2.3h3.6c0.7,0,1.2,0.2,1.6,0.5c0.3,0.3,0.5,0.8,0.4,1.5v14c0,0.5,0.3,0.7,0.8,0.7c0.6,0,0.8-0.5,0.8-1.4
			c0-0.9,0-1.5,0.1-1.6c0.1-0.4,0.4-0.6,0.8-0.6c0.6,0,0.8,0.3,0.8,0.9c0,1.7-0.1,2.9-0.4,3.6c-0.3,0.6-1,0.9-2.1,0.9
			c-0.9,0-1.6-0.1-2-0.4c-0.4-0.2-0.5-0.7-0.5-1.5V13.4c0-0.3-0.1-0.5-0.2-0.6c-0.1-0.1-0.3-0.2-0.6-0.2h-2.4
			c-0.3,0-0.6,0.1-0.7,0.3c0,0.1-0.1,0.3-0.1,0.8s0,1.1,0,1.8v0.5c0,3.6-0.1,6.2-0.3,7.8c-0.2,1.8-0.7,3.2-1.4,4.2
			c-0.7,1.1-1.4,1.6-2,1.6C94.2,29.8,93.9,29.4,93.9,28.7z"/>
	</g>
	<g class="st10">
		<path class="st1" d="M40.8,40.6c-0.1,0-0.1-0.1-0.2-0.2c-0.1-0.1-0.1-0.2-0.1-0.2c0-0.1,0-0.2,0.1-0.3c0.1-0.1,0.2-0.1,0.3-0.1
			c0.1,0,0.1,0,0.2,0c0.6,0.3,1.2,0.4,1.9,0.4c1.1,0,1.7-0.4,1.7-1.1c0-0.2-0.1-0.4-0.2-0.5c-0.1-0.1-0.3-0.2-0.5-0.3
			s-0.5-0.2-1-0.3c-0.5-0.1-0.9-0.3-1.3-0.4c-0.4-0.1-0.7-0.4-0.9-0.6c-0.2-0.3-0.3-0.6-0.3-1s0.1-0.7,0.3-1
			c0.2-0.3,0.5-0.6,0.9-0.7c0.4-0.2,0.8-0.3,1.4-0.3c0.7,0,1.4,0.1,1.9,0.3c0.2,0.1,0.3,0.2,0.3,0.4c0,0.1,0,0.2-0.1,0.3
			s-0.2,0.1-0.3,0.1c0,0-0.1,0-0.2,0c-0.5-0.2-1-0.3-1.6-0.3c-0.5,0-0.9,0.1-1.3,0.3s-0.5,0.5-0.5,0.8c0,0.2,0.1,0.4,0.2,0.6
			c0.1,0.1,0.3,0.2,0.5,0.3c0.2,0.1,0.5,0.2,1,0.3c0.5,0.1,1,0.3,1.2,0.4c0.3,0.1,0.6,0.3,0.8,0.6c0.2,0.3,0.3,0.6,0.3,1
			c0,0.4-0.1,0.7-0.3,1c-0.2,0.3-0.5,0.5-0.9,0.7c-0.4,0.2-0.8,0.2-1.3,0.2C42.3,41.1,41.5,40.9,40.8,40.6z"/>
		<path class="st1" d="M47.1,40.9C47,40.8,47,40.7,47,40.6v-5.9c0-0.1,0-0.2,0.1-0.3c0.1-0.1,0.2-0.1,0.3-0.1h2
			c0.7,0,1.4,0.2,1.9,0.5c0.5,0.3,0.9,0.7,1.2,1.3c0.3,0.5,0.4,1.1,0.4,1.7c0,0.6-0.1,1.1-0.4,1.6c-0.3,0.5-0.7,1-1.2,1.3
			c-0.5,0.3-1.2,0.5-1.9,0.5h-2C47.3,41,47.2,41,47.1,40.9z M50.7,39.8c0.4-0.2,0.7-0.5,0.9-0.9s0.3-0.8,0.3-1.3s-0.1-1-0.3-1.3
			s-0.5-0.7-0.9-0.9c-0.4-0.2-0.9-0.3-1.4-0.3H48c-0.1,0-0.1,0-0.1,0.1V40c0,0.1,0,0.1,0.1,0.1h1.3C49.8,40.2,50.3,40,50.7,39.8z"/>
		<path class="st1" d="M55.5,40.7c-0.5-0.3-0.9-0.7-1.2-1.2c-0.3-0.5-0.4-1.1-0.4-1.8c0-0.7,0.1-1.3,0.4-1.8
			c0.3-0.5,0.7-0.9,1.2-1.2c0.5-0.3,1.1-0.4,1.7-0.4c0.5,0,0.9,0.1,1.3,0.2s0.8,0.3,1.1,0.5c0.1,0,0.1,0.1,0.1,0.1s0.1,0.1,0.1,0.2
			c0,0.1,0,0.2-0.1,0.3s-0.2,0.1-0.3,0.1c-0.1,0-0.1,0-0.2,0c-0.3-0.2-0.6-0.3-0.9-0.4s-0.6-0.1-1-0.1c-0.5,0-0.9,0.1-1.3,0.3
			c-0.4,0.2-0.7,0.5-0.9,0.9c-0.2,0.4-0.3,0.9-0.3,1.4c0,0.5,0.1,1,0.3,1.4c0.2,0.4,0.5,0.7,0.9,1s0.9,0.3,1.4,0.3
			c0.6,0,1.2-0.1,1.7-0.4v-1.6c0-0.1,0-0.1-0.1-0.1h-1.5c-0.1,0-0.2,0-0.3-0.1c-0.1-0.1-0.1-0.2-0.1-0.3c0-0.1,0-0.2,0.1-0.3
			c0.1-0.1,0.2-0.1,0.3-0.1h1.9c0.1,0,0.2,0,0.3,0.1c0.1,0.1,0.1,0.2,0.1,0.3v2.2c0,0.1,0,0.3-0.1,0.4c-0.1,0.1-0.2,0.2-0.3,0.2
			c-0.7,0.4-1.5,0.5-2.2,0.5C56.6,41.1,56,41,55.5,40.7z"/>
		<path class="st1" d="M64.4,40.6c-0.1,0-0.1-0.1-0.2-0.2c-0.1-0.1-0.1-0.2-0.1-0.2c0-0.1,0-0.2,0.1-0.3c0.1-0.1,0.2-0.1,0.3-0.1
			c0.1,0,0.1,0,0.2,0c0.6,0.3,1.2,0.4,1.9,0.4c1.1,0,1.7-0.4,1.7-1.1c0-0.2-0.1-0.4-0.2-0.5c-0.1-0.1-0.3-0.2-0.5-0.3
			s-0.5-0.2-1-0.3c-0.5-0.1-0.9-0.3-1.3-0.4c-0.4-0.1-0.7-0.4-0.9-0.6c-0.2-0.3-0.3-0.6-0.3-1s0.1-0.7,0.3-1
			c0.2-0.3,0.5-0.6,0.9-0.7c0.4-0.2,0.8-0.3,1.4-0.3c0.7,0,1.4,0.1,1.9,0.3c0.2,0.1,0.3,0.2,0.3,0.4c0,0.1,0,0.2-0.1,0.3
			s-0.2,0.1-0.3,0.1c0,0-0.1,0-0.2,0c-0.5-0.2-1-0.3-1.6-0.3c-0.5,0-0.9,0.1-1.3,0.3s-0.5,0.5-0.5,0.8c0,0.2,0.1,0.4,0.2,0.6
			c0.1,0.1,0.3,0.2,0.5,0.3c0.2,0.1,0.5,0.2,1,0.3c0.5,0.1,1,0.3,1.2,0.4c0.3,0.1,0.6,0.3,0.8,0.6c0.2,0.3,0.3,0.6,0.3,1
			c0,0.4-0.1,0.7-0.3,1c-0.2,0.3-0.5,0.5-0.9,0.7c-0.4,0.2-0.8,0.2-1.3,0.2C65.9,41.1,65.2,40.9,64.4,40.6z"/>
		<path class="st1" d="M70.8,40.9c-0.1-0.1-0.1-0.2-0.1-0.3v-6c0-0.1,0-0.2,0.1-0.3c0.1-0.1,0.2-0.1,0.3-0.1c0.1,0,0.2,0,0.3,0.1
			c0.1,0.1,0.1,0.2,0.1,0.3v2.6h3.7v-2.6c0-0.1,0-0.2,0.1-0.3c0.1-0.1,0.2-0.1,0.3-0.1c0.1,0,0.2,0,0.3,0.1c0.1,0.1,0.1,0.2,0.1,0.3
			v6c0,0.1,0,0.2-0.1,0.3c-0.1,0.1-0.2,0.1-0.3,0.1c-0.1,0-0.2,0-0.3-0.1s-0.1-0.2-0.1-0.3V38h-3.7v2.6c0,0.1,0,0.2-0.1,0.3
			c-0.1,0.1-0.2,0.1-0.3,0.1C70.9,41.1,70.8,41,70.8,40.9z"/>
		<path class="st1" d="M77.7,40.9c-0.1-0.1-0.1-0.2-0.1-0.3c0,0,0-0.1,0-0.2l2.5-5.9c0.1-0.1,0.1-0.2,0.2-0.3
			c0.1-0.1,0.2-0.1,0.3-0.1h0.1c0.1,0,0.2,0,0.3,0.1c0.1,0.1,0.2,0.2,0.2,0.3l2.5,5.9c0,0.1,0,0.2,0,0.2c0,0.1,0,0.2-0.1,0.3
			c-0.1,0.1-0.2,0.1-0.3,0.1c-0.1,0-0.2,0-0.3-0.1c-0.1,0-0.1-0.1-0.2-0.2l-0.6-1.5H79l-0.6,1.5c0,0.1-0.1,0.2-0.2,0.2
			c-0.1,0-0.2,0.1-0.3,0.1C77.8,41.1,77.7,41,77.7,40.9z M80.7,35.4C80.7,35.4,80.6,35.4,80.7,35.4l-1.3,3H82L80.7,35.4
			C80.8,35.4,80.7,35.4,80.7,35.4z"/>
		<path class="st1" d="M90.3,38.7c0.2,0.4,0.3,0.9,0.3,1.4v0.4c0,0.1,0,0.2-0.1,0.3s-0.2,0.1-0.3,0.1c-0.1,0-0.2,0-0.3-0.1
			s-0.1-0.2-0.1-0.3v-0.3c0-0.3,0-0.6-0.1-0.9c-0.1-0.3-0.2-0.6-0.4-0.8c-0.2-0.2-0.6-0.3-1-0.3h-2v2.3c0,0.1,0,0.2-0.1,0.3
			c-0.1,0.1-0.2,0.1-0.3,0.1c-0.1,0-0.2,0-0.3-0.1s-0.1-0.2-0.1-0.3v-6c0-0.1,0-0.2,0.1-0.3c0.1-0.1,0.2-0.1,0.3-0.1H88
			c0.9,0,1.5,0.2,2,0.5s0.7,0.8,0.7,1.5c0,0.4-0.1,0.8-0.3,1.1c-0.2,0.3-0.5,0.6-0.9,0.7C89.8,38.1,90.1,38.3,90.3,38.7z M89.3,37.2
			c0.3-0.2,0.5-0.5,0.5-0.9c0-0.4-0.1-0.7-0.4-0.9C89,35.1,88.6,35,87.9,35h-1.6c-0.1,0-0.1,0-0.1,0.1v2.3h1.8
			C88.5,37.5,88.9,37.4,89.3,37.2z"/>
		<path class="st1" d="M92.4,40.9c-0.1-0.1-0.1-0.2-0.1-0.3v-5.9c0-0.1,0-0.2,0.1-0.3c0.1-0.1,0.2-0.1,0.3-0.1h3.9
			c0.1,0,0.2,0,0.3,0.1c0.1,0.1,0.1,0.2,0.1,0.3s0,0.2-0.1,0.3C96.8,35,96.7,35,96.6,35h-3.3c-0.1,0-0.1,0-0.1,0.1v2h3.1
			c0.1,0,0.2,0,0.3,0.1c0.1,0.1,0.1,0.2,0.1,0.3s0,0.2-0.1,0.3S96.4,38,96.2,38h-3.1v2c0,0.1,0,0.1,0.1,0.1h3.3c0.1,0,0.2,0,0.3,0.1
			c0.1,0.1,0.1,0.2,0.1,0.3s0,0.2-0.1,0.3S96.7,41,96.6,41h-3.9C92.5,41,92.4,41,92.4,40.9z"/>
		<path class="st1" d="M100,39.9c-0.1-0.1-0.1-0.2-0.1-0.3V38h-1.6c-0.1,0-0.2,0-0.3-0.1c-0.1-0.1-0.1-0.2-0.1-0.3
			c0-0.1,0-0.2,0.1-0.3c0.1-0.1,0.2-0.1,0.3-0.1h1.6v-1.6c0-0.1,0-0.2,0.1-0.3s0.2-0.1,0.3-0.1c0.1,0,0.2,0,0.3,0.1
			c0.1,0.1,0.1,0.2,0.1,0.3v1.6h1.6c0.1,0,0.2,0,0.3,0.1c0.1,0.1,0.1,0.2,0.1,0.3c0,0.1,0,0.2-0.1,0.3c-0.1,0.1-0.2,0.1-0.3,0.1
			h-1.6v1.6c0,0.1,0,0.2-0.1,0.3c-0.1,0.1-0.2,0.1-0.3,0.1C100.2,40,100.1,40,100,39.9z"/>
	</g>
</g>
</svg>
