<?xml version="1.0" encoding="UTF-8"?>
<svg id="_圖層_1" data-name="圖層 1" xmlns="http://www.w3.org/2000/svg" viewBox="0 0 107.76 50.03">
  <defs>
    <style>
      .cls-1 {
        fill: #eb672c;
      }

      .cls-2 {
        fill: #3e7b43;
      }

      .cls-3 {
        fill: #fff;
      }

      .cls-4 {
        fill: #f0bc1d;
      }

      .cls-5 {
        isolation: isolate;
      }

      .cls-6 {
        fill: #b91c2d;
      }

      .cls-7 {
        fill: #b88730;
      }

      .cls-8 {
        fill: #12335e;
      }

      .cls-9 {
        fill: #30b1d2;
      }

      .cls-10 {
        fill: #e73f2a;
      }

      .cls-11 {
        fill: #991d41;
      }
    </style>
  </defs>
  <g id="_组_7" data-name="组 7">
    <g id="_组_6" data-name="组 6">
      <g id="_路径_1" data-name="路径 1">
        <path class="cls-3" d="m29.55,16.03h-1.05v-1.05c0-1.32-.97-2.43-2.27-2.62.51-.35.91-.85,1.13-1.43.3-.78.28-1.64-.05-2.4-.89-2.05-2.26-3.86-4-5.27C20.79,1.14,17.59,0,14.29,0c-.47,0-.93.02-1.4.07-1.18.12-2.35.38-3.47.78h-.01l-.2.08C3.2,3.23-.53,9.25.09,15.65c.09.9.26,1.8.52,2.67v.02l.05.17c.82,2.65,2.4,5.01,4.55,6.77l.37.3c-.89.03-1.73.44-2.3,1.13-1.62,1.98-2.68,4.36-3.09,6.89H.19l-.02.17v.02c-.16,1.12-.18,2.26-.07,3.38.7,7.3,6.84,12.87,14.17,12.87h0c2.47,0,4.89-.63,7.04-1.85l.27-.15.02-.02c1.41-.83,2.66-1.91,3.7-3.18,3.42-4.14,4.21-9.86,2.05-14.77l-.03-.1-.02-.02c-.89-2.01-2.25-3.79-3.95-5.19l-9.19-7.57c-.56-.46-1.26-.72-1.98-.72-.93,0-1.82.42-2.42,1.14-.53.64-.78,1.46-.7,2.28.02.16.05.32.08.48-.94-.79-1.69-1.78-2.18-2.9-.35-.78-.57-1.6-.65-2.45-.2-2.11.44-4.21,1.78-5.84.59-.72,1.3-1.33,2.1-1.8,1.01-.6,2.13-.96,3.3-1.07.27-.03.53-.04.8-.03,1.85,0,3.64.64,5.07,1.82.48.39.91.84,1.28,1.33h0c.38.5.7,1.05.95,1.63.46,1.05,1.47,1.77,2.62,1.85-.64.5-1.02,1.27-1.02,2.08v1.05h-1.05c-1.46-.06-2.7,1.08-2.75,2.55-.06,1.46,1.08,2.7,2.55,2.75.07,0,.14,0,.21,0h1.05v1.05c-.06,1.46,1.08,2.7,2.55,2.75s2.7-1.08,2.75-2.55c0-.07,0-.14,0-.21v-1.05h1.05c1.47,0,2.66-1.19,2.66-2.66,0-1.47-1.19-2.66-2.66-2.66h0Zm-17.96,27.27h0c-.86-.31-1.67-.77-2.38-1.35-3.41-2.8-3.91-7.83-1.11-11.24,0,0,0,0,.01-.01.53-.64.78-1.46.7-2.28,0-.07-.01-.13-.03-.2l1.52,1.25h0l4.12,3.38c.56.46,1.26.72,1.98.72h0c.93,0,1.82-.42,2.42-1.13.53-.64.78-1.46.7-2.28-.02-.16-.05-.32-.08-.48,1.74,1.46,2.77,3.59,2.85,5.85.15,4.41-3.3,8.12-7.71,8.27-.1,0-.19,0-.29,0-.91-.02-1.82-.18-2.68-.49Z"/>
      </g>
      <g id="_组_5" data-name="组 5">
        <g id="_组_1" data-name="组 1">
          <g id="_路径_2" data-name="路径 2">
            <path class="cls-8" d="m29.55,20.12h-7.39c-.79,0-1.43-.64-1.43-1.43s.64-1.43,1.43-1.43h7.39c.79,0,1.43.64,1.43,1.43s-.64,1.43-1.43,1.43Z"/>
          </g>
          <g id="_路径_3" data-name="路径 3">
            <path class="cls-8" d="m25.84,23.82c-.79,0-1.43-.64-1.43-1.43h0v-7.4c0-.79.64-1.43,1.43-1.43s1.43.64,1.43,1.43v7.4c0,.79-.64,1.43-1.43,1.43h0Z"/>
          </g>
        </g>
        <g id="_组_2" data-name="组 2">
          <g id="_路径_4" data-name="路径 4">
            <path class="cls-4" d="m26.21,30.55c-.82-1.88-2.07-3.53-3.65-4.84l-9.19-7.57c-.81-.67-2.01-.56-2.69.25-.67.81-.56,2.01.25,2.69,0,0,.01.01.02.02l1.2.98c2.44,1.46,4.96,2.78,7.55,3.95,3.04,1.4,5.47,2.9,6.5,4.52Z"/>
          </g>
          <g id="_路径_5" data-name="路径 5">
            <path class="cls-9" d="m11.17,44.46c-1-.36-1.93-.89-2.75-1.55-1.89-1.56-3.08-3.8-3.32-6.24-.24-2.43.49-4.87,2.05-6.75.66-.82.53-2.02-.29-2.68-.81-.65-2-.54-2.66.26-1.49,1.8-2.47,3.97-2.82,6.29.61,5.3,4.56,9.6,9.79,10.67Z"/>
          </g>
          <g id="_路径_6" data-name="路径 6">
            <path class="cls-2" d="m23.49,35.45c.09,2.24-.65,4.44-2.08,6.17-2.47,3.01-6.57,4.14-10.24,2.82-5.23-1.06-9.18-5.37-9.77-10.67-.17,1.08-.2,2.17-.08,3.25.64,6.67,6.25,11.77,12.95,11.77,2.26,0,4.47-.59,6.44-1.7,2.14-3.48,3.12-7.56,2.78-11.64Z"/>
          </g>
          <g id="_路径_7" data-name="路径 7">
            <path class="cls-7" d="m26.21,30.55c-1.05-1.6-3.47-3.1-6.52-4.52-2.59-1.17-5.11-2.49-7.55-3.95l8,6.59c2.04,1.68,3.26,4.16,3.35,6.8.34,4.08-.63,8.16-2.77,11.65,5.82-3.29,8.19-10.46,5.49-16.57h0Z"/>
          </g>
        </g>
        <g id="_组_4" data-name="组 4">
          <g id="_路径_8" data-name="路径 8">
            <path class="cls-10" d="m1.82,18.15c.75,2.43,2.2,4.58,4.17,6.18l5.07,4.17c-2.16-3.28-3.92-6.82-5.24-10.52-.4-.9-.65-1.86-.73-2.83-.24-2.43.49-4.87,2.05-6.75.68-.83,1.5-1.53,2.42-2.08C2.22,8.59,1.8,16.16,1.82,18.15Z"/>
          </g>
          <g id="_路径_9" data-name="路径 9">
            <path class="cls-1" d="m15.19,31.9c.34.29.77.44,1.22.43,1.05,0,1.91-.85,1.92-1.9,0-.57-.25-1.12-.7-1.48l-9.19-7.57c-1.11-.92-2-2.08-2.58-3.4,1.3,3.71,3.06,7.24,5.24,10.52l4.1,3.4Z"/>
          </g>
          <g id="_路径_10" data-name="路径 10">
            <path class="cls-6" d="m9.64,2.08C4.14,4.16.72,9.68,1.3,15.53c.08.89.26,1.77.53,2.62-.02-1.98.38-9.54,7.75-11.82,3.34-1.96,7.55-1.64,10.55.82.55.46,1.05.97,1.48,1.54-2.47-4.25-7.08-6.79-11.99-6.6Z"/>
          </g>
          <g id="_组_3" data-name="组 3">
            <g id="_路径_11" data-name="路径 11">
              <path class="cls-11" d="m26.21,9.03C23.94,3.87,18.62.75,13.01,1.29c-1.15.11-2.28.38-3.37.78,4.9-.18,9.51,2.35,11.97,6.6.44.58.81,1.21,1.1,1.88.39.98,1.5,1.46,2.48,1.08.98-.39,1.46-1.5,1.08-2.48-.02-.04-.04-.09-.06-.13h0Z"/>
            </g>
          </g>
        </g>
      </g>
    </g>
  </g>
  <g id="SDG_SHARE_2" data-name="SDG SHARE 2" class="cls-5">
    <g class="cls-5">
      <path class="cls-8" d="m40.91,21.15c-.14-.06-.25-.15-.35-.29-.1-.14-.15-.28-.15-.43,0-.21.07-.38.21-.52.14-.14.31-.21.51-.21.13,0,.23.02.32.07,1.06.47,2.18.7,3.37.7,1.98,0,2.97-.65,2.97-1.95,0-.34-.13-.62-.38-.84-.23-.22-.51-.39-.85-.51s-.91-.29-1.69-.5c-.9-.23-1.65-.46-2.24-.7-.69-.26-1.22-.63-1.57-1.1-.35-.47-.53-1.03-.53-1.68s.17-1.25.51-1.79c.35-.56.87-.99,1.56-1.28.69-.3,1.48-.44,2.37-.44,1.25,0,2.39.19,3.4.56.33.13.5.36.5.7,0,.18-.07.35-.21.5-.14.15-.3.23-.5.23-.08,0-.17-.02-.27-.07-.89-.31-1.81-.46-2.75-.46s-1.64.17-2.2.51c-.55.34-.83.81-.83,1.42,0,.41.14.74.41.97.25.24.56.43.94.58s.94.31,1.69.48c.96.23,1.69.44,2.19.65.6.23,1.09.58,1.46,1.06.37.48.56,1.08.56,1.81,0,.63-.18,1.2-.55,1.73-.38.52-.9.93-1.56,1.21-.67.28-1.43.42-2.28.42-1.45,0-2.8-.27-4.07-.82Z"/>
      <path class="cls-8" d="m51.96,21.57c-.15-.15-.23-.34-.23-.56v-10.38c0-.22.08-.4.23-.56s.34-.24.56-.24h3.44c1.29,0,2.4.28,3.33.85.88.57,1.55,1.31,2.02,2.21.47.91.7,1.88.7,2.91s-.23,1.97-.68,2.87c-.47.96-1.16,1.72-2.09,2.27s-2.02.84-3.28.84h-3.44c-.22,0-.4-.08-.56-.23Zm6.26-1.84c.71-.38,1.25-.9,1.63-1.57.38-.67.57-1.45.57-2.34s-.19-1.68-.58-2.36-.93-1.21-1.64-1.58c-.71-.37-1.52-.56-2.44-.56h-2.24c-.14,0-.21.07-.21.21v8.58c0,.14.07.21.21.21h2.24c.93,0,1.75-.19,2.46-.58Z"/>
      <path class="cls-8" d="m66.74,21.18c-.92-.52-1.64-1.25-2.14-2.18-.5-.93-.75-1.99-.75-3.17s.26-2.28.79-3.21,1.24-1.66,2.15-2.18c.91-.52,1.92-.78,3.03-.78.84,0,1.6.1,2.27.31s1.33.51,1.99.92c.1.05.19.13.26.25.07.12.1.25.1.38,0,.19-.07.36-.21.5-.14.14-.31.21-.53.21-.1,0-.22-.03-.36-.09-.55-.32-1.09-.56-1.62-.72s-1.11-.24-1.73-.24c-.83,0-1.61.18-2.34.55-.71.38-1.25.92-1.63,1.62-.38.71-.57,1.53-.57,2.46,0,.88.19,1.67.56,2.38.38.72.92,1.27,1.62,1.67.71.39,1.52.59,2.44.59,1.05,0,2.04-.25,2.97-.75v-2.85c0-.14-.07-.21-.21-.21h-2.6c-.19,0-.36-.07-.5-.21-.14-.14-.21-.31-.21-.5s.07-.36.21-.5c.14-.14.31-.21.5-.21h3.37c.23,0,.42.08.59.25s.25.36.25.59v3.88c0,.24-.06.45-.17.64-.11.19-.28.33-.5.44-1.3.64-2.6.96-3.91.96-1.19,0-2.23-.26-3.13-.79Z"/>
      <path class="cls-8" d="m40.91,39.55c-.14-.06-.25-.15-.35-.29-.1-.14-.15-.28-.15-.43,0-.21.07-.38.21-.52.14-.14.31-.21.51-.21.13,0,.23.02.32.07,1.06.47,2.18.7,3.37.7,1.98,0,2.97-.65,2.97-1.95,0-.34-.13-.62-.38-.84-.23-.22-.51-.39-.85-.51s-.91-.29-1.69-.5c-.9-.23-1.65-.46-2.24-.7-.69-.26-1.22-.63-1.57-1.1-.35-.47-.53-1.03-.53-1.68s.17-1.25.51-1.79c.35-.56.87-.99,1.56-1.28.69-.3,1.48-.44,2.37-.44,1.25,0,2.39.19,3.4.56.33.13.5.36.5.7,0,.18-.07.35-.21.5-.14.15-.3.23-.5.23-.08,0-.17-.02-.27-.07-.89-.31-1.81-.46-2.75-.46s-1.64.17-2.2.51c-.55.34-.83.81-.83,1.42,0,.41.14.74.41.97.25.24.56.43.94.58s.94.31,1.69.48c.96.23,1.69.44,2.19.65.6.23,1.09.58,1.46,1.06.37.48.56,1.08.56,1.81,0,.63-.18,1.2-.55,1.73-.38.52-.9.93-1.56,1.21-.67.28-1.43.42-2.28.42-1.45,0-2.8-.27-4.07-.82Z"/>
      <path class="cls-8" d="m51.96,40.06c-.15-.15-.23-.34-.23-.56v-10.55c0-.22.08-.4.23-.56s.34-.24.56-.24.4.08.56.24.24.35.24.56v4.53h6.44v-4.53c0-.22.08-.4.23-.56s.34-.24.56-.24.4.08.56.24.24.35.24.56v10.55c0,.22-.08.4-.24.56-.16.15-.35.23-.56.23s-.4-.08-.56-.23c-.15-.15-.23-.34-.23-.56v-4.53h-6.44v4.53c0,.22-.08.4-.24.56-.16.15-.35.23-.56.23s-.4-.08-.56-.23Z"/>
      <path class="cls-8" d="m64.06,40.06c-.15-.15-.22-.34-.22-.56,0-.08.03-.19.09-.34l4.36-10.29c.1-.23.24-.4.41-.53s.37-.19.6-.19h.17c.23,0,.43.06.6.19s.31.3.41.53l4.36,10.29c.06.15.09.26.09.34,0,.22-.07.4-.22.56-.15.15-.34.23-.56.23-.17,0-.32-.04-.45-.13-.13-.09-.23-.21-.3-.37l-1.11-2.65h-5.78l-1.11,2.65c-.07.16-.17.28-.3.37-.13.08-.28.13-.45.13-.23,0-.42-.08-.56-.23Zm5.32-9.67c-.06,0-.1.04-.14.12l-2.15,5.18h4.58l-2.15-5.18c-.03-.08-.08-.12-.14-.12Z"/>
      <path class="cls-8" d="m86.23,36.24c.33.74.5,1.56.5,2.47v.79c0,.22-.08.4-.23.56-.15.15-.34.23-.56.23-.24,0-.43-.07-.58-.21-.15-.14-.22-.33-.22-.57v-.51c0-.57-.05-1.1-.15-1.59-.11-.54-.37-.98-.78-1.33-.41-.35-.97-.52-1.7-.52h-3.52v3.95c0,.22-.08.4-.24.56-.16.15-.35.23-.56.23s-.4-.08-.56-.23c-.15-.15-.23-.34-.23-.56v-10.46c0-.22.08-.4.23-.56s.34-.24.56-.24h3.98c1.5,0,2.66.32,3.46.95.8.63,1.2,1.48,1.2,2.54,0,.69-.19,1.32-.57,1.88-.38.56-.93.96-1.63,1.21.74.22,1.28.69,1.61,1.43Zm-1.84-2.79c.56-.39.85-.93.85-1.62s-.25-1.23-.76-1.58c-.51-.35-1.34-.52-2.5-.52h-2.79c-.14,0-.21.07-.21.21v4.1h3.08c.99,0,1.77-.2,2.33-.59Z"/>
      <path class="cls-8" d="m89.79,39.97c-.15-.15-.23-.34-.23-.56v-10.38c0-.22.08-.4.23-.56s.34-.24.56-.24h6.85c.21,0,.38.07.53.22s.22.32.22.53-.07.38-.22.52c-.15.14-.32.21-.53.21h-5.85c-.14,0-.21.07-.21.21v3.54h5.44c.21,0,.38.07.53.22s.22.32.22.53-.07.38-.22.52c-.15.14-.32.21-.53.21h-5.44v3.56c0,.14.07.21.21.21h5.85c.21,0,.38.07.53.22s.22.32.22.53-.07.38-.22.52c-.15.14-.32.21-.53.21h-6.85c-.22,0-.4-.08-.56-.23Z"/>
      <path class="cls-8" d="m103.15,38.22c-.14-.14-.21-.3-.21-.48v-2.79h-2.79c-.18,0-.34-.07-.47-.2s-.2-.29-.2-.47c0-.19.07-.36.2-.49.13-.13.29-.2.47-.2h2.79v-2.79c0-.19.07-.36.21-.49.14-.13.3-.2.48-.2.19,0,.36.07.49.2.13.13.2.29.2.49v2.79h2.77c.19,0,.36.07.49.2s.2.29.2.49c0,.18-.07.34-.2.47-.13.13-.29.2-.49.2h-2.77v2.79c0,.18-.07.34-.2.48-.13.14-.29.21-.49.21-.18,0-.34-.07-.48-.21Z"/>
    </g>
  </g>
</svg>