<svg xmlns="http://www.w3.org/2000/svg" width="31.621" height="33.369" viewBox="0 0 31.621 33.369">
  <path id="square-facebook-brands" d="M28.233,32H3.388A3.485,3.485,0,0,0,0,35.575V61.794a3.485,3.485,0,0,0,3.388,3.575h9.688V54.024H8.629v-5.34h4.447v-4.07c0-4.629,2.612-7.186,6.612-7.186a25.571,25.571,0,0,1,3.919.361v4.544H21.4a2.6,2.6,0,0,0-2.853,2.885v3.467H23.4l-.776,5.34H18.546V65.369h9.688a3.485,3.485,0,0,0,3.388-3.575V35.575A3.485,3.485,0,0,0,28.233,32Z" transform="translate(0 -32)" fill="#3b579d"/>
</svg>
