<svg xmlns="http://www.w3.org/2000/svg" width="101.176" height="101.174" viewBox="0 0 101.176 101.174">
  <g id="Group_54" data-name="Group 54" transform="translate(-1458.824 -872.914)">
    <path id="Path_76" data-name="Path 76" d="M1494.261,898.238c0,1.418.047,2.838-.013,4.253a5.813,5.813,0,0,1-5.883,5.842c-2.755.08-5.516.068-8.272.008a5.793,5.793,0,0,1-6.025-5.709,81.412,81.412,0,0,1,0-8.74,5.773,5.773,0,0,1,5.77-5.738c2.83-.145,5.676-.139,8.507-.009,3.666.168,5.848,2.582,5.918,6.311C1494.284,895.716,1494.264,896.977,1494.261,898.238Zm-10.051-5.033c-5.1,0-5.1,0-5.1,5.077,0,4.972,0,4.972,4.96,4.972,5.09,0,5.09,0,5.09-5.07C1489.163,893.205,1489.163,893.205,1484.21,893.205Z"/>
    <path id="Path_77" data-name="Path 77" d="M1524.56,898.3c0-1.339-.028-2.679.006-4.018.091-3.558,2.3-5.956,5.854-6.13,2.83-.139,5.677-.134,8.507,0a5.768,5.768,0,0,1,5.824,5.684,75.06,75.06,0,0,1-.022,8.975,5.73,5.73,0,0,1-5.94,5.531c-2.677.067-5.358.054-8.036.006-3.787-.068-6.112-2.444-6.189-6.267C1524.538,900.818,1524.56,899.557,1524.56,898.3Zm10.12,4.957c5.031,0,5.031,0,5.031-5.137v-.236c0-4.676,0-4.676-4.792-4.676-5.258,0-5.258,0-5.258,5.144C1529.661,903.254,1529.661,903.254,1534.68,903.254Z"/>
    <path id="Path_78" data-name="Path 78" d="M1494.263,948.687c0,1.339.029,2.679,0,4.018-.092,3.567-2.284,5.965-5.843,6.145-2.829.143-5.676.138-8.506,0a5.833,5.833,0,0,1-5.859-5.907c-.124-2.752-.117-5.517-.006-8.27.149-3.7,2.527-5.956,6.211-6.019q3.9-.067,7.8,0c3.793.066,6.123,2.434,6.2,6.249C1494.286,946.165,1494.264,947.426,1494.263,948.687Zm-5.1-.041c0-4.9,0-4.9-4.789-4.9-5.261,0-5.261,0-5.261,5.141,0,4.908,0,4.908,4.795,4.908C1489.163,953.8,1489.163,953.8,1489.163,948.646Z"/>
    <path id="Path_79" data-name="Path 79" d="M1458.882,890.11c0-1.578-.075-3.16.013-4.733.39-6.982,5.253-11.963,12.224-12.361,3.3-.189,6.627-.059,9.941-.052,1.716,0,3.051.721,3.041,2.562-.009,1.819-1.273,2.551-3.04,2.536-3.077-.027-6.155-.04-9.232,0-4.7.065-7.8,3.2-7.86,7.928q-.057,4.5,0,8.994c.026,1.848-.647,3.229-2.609,3.207-1.836-.021-2.495-1.406-2.5-3.112,0-1.657,0-3.314,0-4.971Z"/>
    <path id="Path_80" data-name="Path 80" d="M1554.862,890.253c0-1.42.019-2.841,0-4.261-.078-4.739-3.158-7.862-7.863-7.928q-4.5-.063-9,0c-1.827.029-3.267-.568-3.274-2.542s1.486-2.579,3.273-2.572c3.078.011,6.159-.078,9.233.027,7.208.246,12.326,5.222,12.684,12.4.161,3.227.044,6.469.044,9.7,0,1.7-.659,3.091-2.5,3.112-1.965.022-2.656-1.358-2.606-3.206C1554.9,893.41,1554.863,891.831,1554.862,890.253Z"/>
    <path id="Path_81" data-name="Path 81" d="M1463.961,956.739c0,1.421-.018,2.841,0,4.261.075,4.731,3.16,7.866,7.856,7.936q4.5.066,8.995,0c1.822-.029,3.27.552,3.28,2.532s-1.476,2.588-3.264,2.582c-3.078-.01-6.159.08-9.232-.027-7.213-.251-12.341-5.233-12.692-12.39-.159-3.227-.042-6.469-.044-9.7,0-1.705.653-3.093,2.491-3.119,1.963-.028,2.663,1.347,2.614,3.2C1463.927,953.582,1463.961,955.161,1463.961,956.739Z"/>
    <path id="Path_82" data-name="Path 82" d="M1542.726,968.938c1.578,0,3.158.054,4.734-.011a7.494,7.494,0,0,0,7.379-7.439c.088-3.154.054-6.312.012-9.468-.025-1.847.639-3.231,2.6-3.213,1.835.016,2.506,1.4,2.506,3.1,0,3.235.114,6.476-.043,9.7a12.521,12.521,0,0,1-12.206,12.369c-3.3.194-6.626.06-9.94.055-1.716,0-3.053-.717-3.048-2.557,0-1.818,1.263-2.571,3.032-2.54,1.657.028,3.315.006,4.972.006Z"/>
    <path id="Path_83" data-name="Path 83" d="M1524.566,953.67h4.911c.422-1.925-.465-4.887,2.727-4.829,3,.053,2.25,2.824,2.544,4.816h4.987c0-.881-.3-1.9.07-2.514.579-.944,1.556-2.108,2.484-2.224.716-.089,2.149,1.179,2.322,2.034a20.174,20.174,0,0,1,.088,5.633c-.133,1.569-1.31,2.285-2.822,2.291q-9.687.035-19.374,0c-2.023-.008-3.011-1.133-3.029-3.128-.013-1.339-.028-2.678.007-4.016.045-1.724.816-2.991,2.659-2.925,1.681.059,2.45,1.226,2.427,2.894C1524.559,952.319,1524.566,952.933,1524.566,953.67Z"/>
    <path id="Path_84" data-name="Path 84" d="M1514.639,913.563v4.71c.968.076,2.021-.146,2.616.277.894.636,1.962,1.694,2.016,2.627.041.723-1.311,2.135-2.121,2.194a68.767,68.767,0,0,1-10.38,0,3.428,3.428,0,0,1-2.239-2.4c-.1-.71,1.127-1.838,2.007-2.4.641-.408,1.679-.193,2.7-.267v-4.861c-2.22,0-4.4.009-6.581,0-1.744-.008-3.249-.486-3.247-2.56s1.444-2.552,3.23-2.543q6.618.033,13.235,0c1.806-.012,3.477.243,3.524,2.482s-1.6,2.614-3.413,2.635C1515.6,913.458,1515.211,913.515,1514.639,913.563Z"/>
    <path id="Path_85" data-name="Path 85" d="M1514.423,938.649v-4.9c-.951-.079-2,.11-2.723-.295-.9-.507-2.18-1.574-2.1-2.268a3.476,3.476,0,0,1,2.14-2.447,12.626,12.626,0,0,1,5.383-.007,3.5,3.5,0,0,1,2.233,2.388c.269,3.287.129,6.608.106,9.915a2.465,2.465,0,0,1-2.679,2.669q-7.325.1-14.651.007c-1.6-.019-2.77-.808-2.723-2.59.045-1.76,1.185-2.464,2.826-2.469C1506.229,938.641,1510.226,938.649,1514.423,938.649Z"/>
    <path id="Path_86" data-name="Path 86" d="M1539.719,938.608c0,.876-.012,1.418,0,1.958.06,2.2-1.108,3.166-3.2,3.174q-4.377.018-8.756,0c-2.093-.007-3.255-.965-3.209-3.168.03-1.419-.011-2.84.016-4.259a2.417,2.417,0,0,1,2.428-2.66c1.582-.07,2.432.95,2.621,2.482.094.764.1,1.539.155,2.406h4.7c.051-.637.091-1.235.147-1.833a6.184,6.184,0,0,1,.154-1.167c.5-1.681,1.836-2.138,3.345-1.957,2.2.264,4.912-1.146,6.39,1.65a2.352,2.352,0,0,1-1.911,3.35A19.424,19.424,0,0,1,1539.719,938.608Z"/>
    <path id="Path_87" data-name="Path 87" d="M1514.5,893.205c-4.153,0-7.924-.021-11.694.009-1.852.015-3.424-.4-3.391-2.611.031-2.067,1.576-2.5,3.3-2.5,4.482,0,8.965-.034,13.446.012,2.46.025,3.269.842,3.3,3.251.042,2.988.009,5.976.007,8.964,0,1.62-.6,2.824-2.392,2.869-1.922.049-2.585-1.174-2.584-2.913C1514.5,898.025,1514.5,895.761,1514.5,893.205Z"/>
    <path id="Path_88" data-name="Path 88" d="M1539.731,918.294c0-.921-.286-1.876.064-2.426.593-.933,1.519-2.108,2.436-2.236a3.065,3.065,0,0,1,2.368,1.915,77.741,77.741,0,0,1,0,10.846,3.1,3.1,0,0,1-2.344,1.986c-.927-.131-1.861-1.316-2.459-2.258-.353-.557-.064-1.521-.064-2.4-2.035-.484-5.12.422-4.968-2.921C1534.892,918.008,1537.467,918.513,1539.731,918.294Z"/>
    <path id="Path_89" data-name="Path 89" d="M1504.425,953.8c-.074,1.263.165,2.315-.244,2.944a4.111,4.111,0,0,1-2.469,1.941,2.95,2.95,0,0,1-2.185-1.9,17.117,17.117,0,0,1-.008-5.87,3.311,3.311,0,0,1,2.349-2.08c3.294-.249,6.619-.152,9.93-.088a2.4,2.4,0,0,1,2.615,2.489c-.005,1.67-1.075,2.553-2.771,2.562C1509.294,953.81,1506.946,953.8,1504.425,953.8Z"/>
    <path id="Path_90" data-name="Path 90" d="M1488.881,918.524c-.732-.043-1.664.169-2.233-.192-.929-.587-2.057-1.432-2.31-2.378-.366-1.377.671-2.385,2.162-2.458a20.5,20.5,0,0,1,5.394.086c.919.206,1.717,1.472,2.3,2.423.312.506.055,1.362.055,2.249.96.071,1.8.083,2.617.2,1.523.225,2.689,1.18,2.306,2.66-.242.936-1.495,1.7-2.44,2.325-.44.29-1.225.061-1.854.062C1489.765,923.51,1489.765,923.509,1488.881,918.524Z"/>
    <path id="Path_91" data-name="Path 91" d="M1524.568,920.678a19.3,19.3,0,0,1,.1-4.694,3.9,3.9,0,0,1,2.278-2.4c1.532-.43,2.577.765,2.63,2.278.121,3.378.108,6.764.019,10.143a2.359,2.359,0,0,1-2.579,2.494,2.4,2.4,0,0,1-2.446-2.63C1524.54,924.139,1524.566,922.408,1524.568,920.678Z"/>
    <path id="Path_92" data-name="Path 92" d="M1481.618,933.549c-1.649,0-3.3.024-4.948-.007a2.469,2.469,0,1,1,.024-4.935c3.3-.022,6.6-.032,9.9.007a2.465,2.465,0,1,1-.025,4.927C1484.918,933.579,1483.267,933.549,1481.618,933.549Z"/>
    <path id="Path_93" data-name="Path 93" d="M1479.1,918.522c0,.788.04,1.579-.011,2.363-.1,1.56-1,2.762-2.5,2.483a3.722,3.722,0,0,1-2.426-2.284,16.986,16.986,0,0,1-.093-5.169,2.336,2.336,0,0,1,2.628-2.422c1.631.086,2.337,1.123,2.395,2.665C1479.13,916.945,1479.106,917.734,1479.1,918.522Z"/>
    <path id="Path_94" data-name="Path 94" d="M1504.331,903.209c-.944,0-2.05.31-2.788-.08-.883-.465-2-1.522-2-2.332a3.123,3.123,0,0,1,1.936-2.339,14.347,14.347,0,0,1,5.616-.016,3.452,3.452,0,0,1,2.135,2.445c.076.692-1.2,1.8-2.1,2.252-.754.378-1.848.078-2.792.078Z"/>
    <path id="Path_95" data-name="Path 95" d="M1499.462,928.656c.943,0,2.07-.322,2.783.083a3.821,3.821,0,0,1,1.9,2.445,2.907,2.907,0,0,1-1.831,2.2,17.27,17.27,0,0,1-5.857.015,3.148,3.148,0,0,1-2.015-2.3c-.007-.808,1.11-1.921,2-2.356.825-.4,2-.086,3.024-.086Z"/>
  </g>
</svg>
