<svg xmlns="http://www.w3.org/2000/svg" xmlns:xlink="http://www.w3.org/1999/xlink" width="430" height="932" viewBox="0 0 430 932">
  <defs>
    <linearGradient id="linear-gradient" x1="0.055" y1="0.981" x2="0.943" y2="0.036" gradientUnits="objectBoundingBox">
      <stop offset="0" stop-color="#208db7"/>
      <stop offset="1" stop-color="#0763b4"/>
    </linearGradient>
    <linearGradient id="linear-gradient-2" x1="0.5" x2="0.5" y2="1" gradientUnits="objectBoundingBox">
      <stop offset="0" stop-color="#e5e5e5"/>
      <stop offset="0.686" stop-color="#bebebe"/>
      <stop offset="1" stop-color="#fbfbfb"/>
    </linearGradient>
    <clipPath id="clip-iPhone_14_Pro_Max_1">
      <rect width="430" height="932"/>
    </clipPath>
  </defs>
  <g id="iPhone_14_Pro_Max_1" data-name="iPhone 14 Pro Max – 1" clip-path="url(#clip-iPhone_14_Pro_Max_1)">
    <rect width="430" height="932" fill="#ececec"/>
    <g id="Group_1" data-name="Group 1" transform="translate(-811 5.596)">
      <g id="Group_95" data-name="Group 95" transform="translate(979 98.849)">
        <path id="Path_343" data-name="Path 343" d="M1073,512.781H979l.089-1.926h93.822Z" transform="translate(-979 -466.995)" fill="#bf964c"/>
        <path id="Path_344" data-name="Path 344" d="M1075.341,471.581H981.974q.114-.969.27-1.926h92.827Q1075.227,470.611,1075.341,471.581Z" transform="translate(-981.657 -430.181)" fill="#bf964c"/>
        <path id="Path_345" data-name="Path 345" d="M1080.767,430.38h-91.9q.21-.969.461-1.925h90.977Q1080.558,429.409,1080.767,430.38Z" transform="translate(-987.817 -393.366)" fill="#bf964c"/>
        <path id="Path_346" data-name="Path 346" d="M1089.468,389.18H999.922q.311-.972.665-1.926H1088.8Q1089.156,388.207,1089.468,389.18Z" transform="translate(-997.695 -356.552)" fill="#bf964c"/>
        <path id="Path_347" data-name="Path 347" d="M1101.7,347.979h-86.235q.425-.974.893-1.926h84.449Q1101.279,347,1101.7,347.979Z" transform="translate(-1011.586 -319.737)" fill="#bf964c"/>
        <path id="Path_348" data-name="Path 348" d="M1117.925,306.779h-81.848q.552-.977,1.153-1.926h79.541Q1117.372,305.8,1117.925,306.779Z" transform="translate(-1030.002 -282.923)" fill="#bf964c"/>
        <path id="Path_349" data-name="Path 349" d="M1138.767,265.578h-76.21q.711-.982,1.471-1.926H1137.3Q1138.055,264.6,1138.767,265.578Z" transform="translate(-1053.662 -246.108)" fill="#bf964c"/>
        <path id="Path_350" data-name="Path 350" d="M1165.366,224.377h-69.015q.915-.99,1.887-1.926h65.241Q1164.451,223.387,1165.366,224.377Z" transform="translate(-1083.858 -209.293)" fill="#bf964c"/>
        <path id="Path_351" data-name="Path 351" d="M1199.732,183.177h-59.719q1.22-1,2.507-1.926h54.706Q1198.513,182.172,1199.732,183.177Z" transform="translate(-1122.873 -172.479)" fill="#bf964c"/>
        <path id="Path_352" data-name="Path 352" d="M1246.43,141.976h-47.087q1.794-1.042,3.687-1.926h39.712Q1244.634,140.933,1246.43,141.976Z" transform="translate(-1175.886 -135.664)" fill="#bf964c"/>
        <path id="Path_353" data-name="Path 353" d="M1321.712,100.775h-26.723a47.32,47.32,0,0,1,26.723,0Z" transform="translate(-1261.35 -98.849)" fill="#bf964c"/>
        <path id="Path_354" data-name="Path 354" d="M1073,552.056q-.024.968-.089,1.926H979.089q-.064-.958-.089-1.926Z" transform="translate(-979 -503.81)" fill="#bf964c"/>
        <path id="Path_355" data-name="Path 355" d="M1075.341,593.257q-.114.969-.269,1.926H982.244q-.156-.957-.27-1.926Z" transform="translate(-981.657 -540.625)" fill="#bf964c"/>
        <path id="Path_356" data-name="Path 356" d="M1080.767,634.458q-.211.969-.461,1.926H989.329q-.252-.955-.461-1.926Z" transform="translate(-987.817 -577.44)" fill="#bf964c"/>
        <path id="Path_357" data-name="Path 357" d="M1089.468,675.658q-.311.972-.666,1.925h-88.215q-.354-.953-.665-1.925Z" transform="translate(-997.695 -614.254)" fill="#bf964c"/>
        <path id="Path_358" data-name="Path 358" d="M1101.7,716.859q-.425.974-.893,1.926h-84.449q-.469-.952-.893-1.926Z" transform="translate(-1011.586 -651.069)" fill="#bf964c"/>
        <path id="Path_359" data-name="Path 359" d="M1117.925,758.059q-.552.977-1.153,1.926h-79.541q-.6-.948-1.153-1.926Z" transform="translate(-1030.002 -687.883)" fill="#bf964c"/>
        <path id="Path_360" data-name="Path 360" d="M1138.767,799.26q-.711.982-1.471,1.926h-73.268q-.759-.944-1.471-1.926Z" transform="translate(-1053.662 -724.698)" fill="#bf964c"/>
        <path id="Path_361" data-name="Path 361" d="M1165.366,840.461q-.915.99-1.887,1.926h-65.241q-.973-.935-1.887-1.926Z" transform="translate(-1083.858 -761.513)" fill="#bf964c"/>
        <path id="Path_362" data-name="Path 362" d="M1199.732,881.661q-1.219,1-2.506,1.926h-54.706q-1.287-.921-2.507-1.926Z" transform="translate(-1122.873 -798.327)" fill="#bf964c"/>
        <path id="Path_363" data-name="Path 363" d="M1246.43,922.862q-1.794,1.041-3.687,1.926H1203.03q-1.892-.883-3.687-1.926Z" transform="translate(-1175.886 -835.142)" fill="#bf964c"/>
        <path id="Path_364" data-name="Path 364" d="M1321.712,964.063a47.318,47.318,0,0,1-26.723,0Z" transform="translate(-1261.35 -871.956)" fill="#bf964c"/>
        <path id="Path_365" data-name="Path 365" d="M1321.712,964.063a47.318,47.318,0,0,1-26.723,0Z" transform="translate(-1261.35 -871.956)" fill="#bf964c"/>
        <path id="Path_366" data-name="Path 366" d="M1246.43,922.862q-1.794,1.041-3.687,1.926H1203.03q-1.892-.883-3.687-1.926Z" transform="translate(-1175.886 -835.142)" fill="#bf964c"/>
        <path id="Path_367" data-name="Path 367" d="M1199.732,881.661q-1.219,1-2.506,1.926h-54.706q-1.287-.921-2.507-1.926Z" transform="translate(-1122.873 -798.327)" fill="#bf964c"/>
        <path id="Path_368" data-name="Path 368" d="M1165.366,840.461q-.915.99-1.887,1.926h-65.241q-.973-.935-1.887-1.926Z" transform="translate(-1083.858 -761.513)" fill="#bf964c"/>
        <path id="Path_369" data-name="Path 369" d="M1138.767,799.26q-.711.982-1.471,1.926h-73.268q-.759-.944-1.471-1.926Z" transform="translate(-1053.662 -724.698)" fill="#bf964c"/>
        <path id="Path_370" data-name="Path 370" d="M1117.925,758.059q-.552.977-1.153,1.926h-79.541q-.6-.948-1.153-1.926Z" transform="translate(-1030.002 -687.883)" fill="#bf964c"/>
        <path id="Path_371" data-name="Path 371" d="M1101.7,716.859q-.425.974-.893,1.926h-84.449q-.469-.952-.893-1.926Z" transform="translate(-1011.586 -651.069)" fill="#bf964c"/>
        <path id="Path_372" data-name="Path 372" d="M1089.468,675.658q-.311.972-.666,1.925h-88.215q-.354-.953-.665-1.925Z" transform="translate(-997.695 -614.254)" fill="#bf964c"/>
        <path id="Path_373" data-name="Path 373" d="M1080.767,634.458q-.211.969-.461,1.926H989.329q-.252-.955-.461-1.926Z" transform="translate(-987.817 -577.44)" fill="#bf964c"/>
        <path id="Path_374" data-name="Path 374" d="M1075.341,593.257q-.114.969-.269,1.926H982.244q-.156-.957-.27-1.926Z" transform="translate(-981.657 -540.625)" fill="#bf964c"/>
        <path id="Path_375" data-name="Path 375" d="M1073,552.056q-.024.968-.089,1.926H979.089q-.064-.958-.089-1.926Z" transform="translate(-979 -503.81)" fill="#bf964c"/>
        <path id="Path_376" data-name="Path 376" d="M1321.712,100.775h-26.723a47.32,47.32,0,0,1,26.723,0Z" transform="translate(-1261.35 -98.849)" fill="#bf964c"/>
        <path id="Path_377" data-name="Path 377" d="M1246.43,141.976h-47.087q1.794-1.042,3.687-1.926h39.712Q1244.634,140.933,1246.43,141.976Z" transform="translate(-1175.886 -135.664)" fill="#bf964c"/>
        <path id="Path_378" data-name="Path 378" d="M1199.732,183.177h-59.719q1.22-1,2.507-1.926h54.706Q1198.513,182.172,1199.732,183.177Z" transform="translate(-1122.873 -172.479)" fill="#bf964c"/>
        <path id="Path_379" data-name="Path 379" d="M1165.366,224.377h-69.015q.915-.99,1.887-1.926h65.241Q1164.451,223.387,1165.366,224.377Z" transform="translate(-1083.858 -209.293)" fill="#bf964c"/>
        <path id="Path_380" data-name="Path 380" d="M1138.767,265.578h-76.21q.711-.982,1.471-1.926H1137.3Q1138.055,264.6,1138.767,265.578Z" transform="translate(-1053.662 -246.108)" fill="#bf964c"/>
        <path id="Path_381" data-name="Path 381" d="M1117.925,306.779h-81.848q.552-.977,1.153-1.926h79.541Q1117.372,305.8,1117.925,306.779Z" transform="translate(-1030.002 -282.923)" fill="#bf964c"/>
        <path id="Path_382" data-name="Path 382" d="M1101.7,347.979h-86.235q.425-.974.893-1.926h84.449Q1101.279,347,1101.7,347.979Z" transform="translate(-1011.586 -319.737)" fill="#bf964c"/>
        <path id="Path_383" data-name="Path 383" d="M1089.468,389.18H999.922q.311-.972.665-1.926H1088.8Q1089.156,388.207,1089.468,389.18Z" transform="translate(-997.695 -356.552)" fill="#bf964c"/>
        <path id="Path_384" data-name="Path 384" d="M1080.767,430.38h-91.9q.21-.969.461-1.925h90.977Q1080.558,429.409,1080.767,430.38Z" transform="translate(-987.817 -393.366)" fill="#bf964c"/>
        <path id="Path_385" data-name="Path 385" d="M1075.341,471.581H981.974q.114-.969.27-1.926h92.827Q1075.227,470.611,1075.341,471.581Z" transform="translate(-981.657 -430.181)" fill="#bf964c"/>
        <path id="Path_386" data-name="Path 386" d="M1073,512.782H979l.089-1.926h93.822Q1072.975,511.814,1073,512.782Z" transform="translate(-979 -466.996)" fill="#bf964c"/>
      </g>
      <path id="Path_387" data-name="Path 387" d="M1152.618,228.424a61.3,61.3,0,0,0-1.429-15.542h11.424a32.07,32.07,0,0,0-3.05-12.881H1188.6l-.081.349a32.072,32.072,0,0,0-2.888,12.529v0h11.935a61.288,61.288,0,0,0-1.429,15.542c.745,13.733,4.365,28.424,8.028,40.347H1144.59C1148.253,256.847,1151.872,242.156,1152.618,228.424Z" transform="translate(-147.962 -90.383)" fill="#2c0e6c"/>
      <g id="Group_96" data-name="Group 96" transform="translate(1018.814 111.427)">
        <path id="Path_388" data-name="Path 388" d="M1368.436,224.452a1.436,1.436,0,0,1-1.437,1.437h-4.844V269.8h1.171a1.437,1.437,0,0,1,0,2.874h-1.171v1.118a1.437,1.437,0,1,1-2.874,0v-1.118h-1.171a1.437,1.437,0,1,1,0-2.874h1.171V225.889h-4.844a1.437,1.437,0,1,1,0-2.874h4.844v-4.578a1.437,1.437,0,1,1,2.874,0v4.578H1367A1.436,1.436,0,0,1,1368.436,224.452Z" transform="translate(-1353 -217)" fill="#fff"/>
      </g>
      <g id="Group_98" data-name="Group 98" transform="translate(1009.127 129.311)">
        <g id="Group_97" data-name="Group 97" transform="translate(0 0)">
          <path id="Path_389" data-name="Path 389" d="M1275.585,415.644l-3.916-5.706a4.413,4.413,0,0,0,2.359-3.9v-16.63a4.411,4.411,0,0,0-4.406-4.406h-1.088a4.412,4.412,0,0,0-4.406,4.406v16.63a4.408,4.408,0,0,0,2.129,3.771l-4.006,5.837a1.437,1.437,0,1,0,2.37,1.627l4.3-6.262,4.3,6.262a1.437,1.437,0,1,0,2.37-1.627Zm-4.432-9.608a1.534,1.534,0,0,1-1.532,1.532h-1.088a1.534,1.534,0,0,1-1.532-1.532v-3.472h4.152Zm0-6.346H1267v-3.832h4.152Zm0-6.707H1267v-3.578a1.534,1.534,0,0,1,1.532-1.532h1.088a1.535,1.535,0,0,1,1.532,1.532Z" transform="translate(-1261.998 -385)" fill="#fff"/>
        </g>
      </g>
      <g id="Group_100" data-name="Group 100" transform="translate(1030.098 130.4)">
        <g id="Group_99" data-name="Group 99" transform="translate(0)">
          <path id="Path_390" data-name="Path 390" d="M1470.882,419.888l-4.379-6.38V407.5h3.141a1.457,1.457,0,0,0,1.308-2.1l-4.577-9.353a1.456,1.456,0,0,0-2.62,0l-4.579,9.357a1.457,1.457,0,0,0,1.309,2.1h3.142v6.007l-4.378,6.38a1.437,1.437,0,1,0,2.37,1.627l2.009-2.926V425.7a1.437,1.437,0,1,0,2.874,0v-7.117l2.009,2.926a1.437,1.437,0,1,0,2.37-1.627Zm-8.123-15.261,2.307-4.714,2.307,4.714Z" transform="translate(-1458.998 -395.23)" fill="#fff"/>
        </g>
      </g>
    </g>
    <text id="財政部印刷廠發票叫號系統" transform="translate(38 244)" fill="#c1974d" font-size="26" font-family="SourceHanSansTW-Medium, Source Han Sans TW" font-weight="500" letter-spacing="0.15em"><tspan x="0" y="0">財政部印刷廠發票叫號系統</tspan></text>
    <path id="Path_391" data-name="Path 391" d="M-10.825,0H250.909l-8.677,48.035C239.394,62.4,230.046,74,219,74H20C8.954,74,.561,61.346-2.277,48.035Z" transform="translate(94.825)" fill="#2088be"/>
    <text id="發票叫號系統" transform="translate(127 58)" fill="#fff" font-size="26" font-family="SourceHanSansTW-Bold, Source Han Sans TW" font-weight="700" letter-spacing="0.15em"><tspan x="0" y="0">發票叫號系統</tspan></text>
    <rect id="Rectangle_1" data-name="Rectangle 1" width="275" height="351" rx="31" transform="translate(84 363)" fill="url(#linear-gradient)"/>
    <rect id="Rectangle_2" data-name="Rectangle 2" width="248" height="321" rx="20" transform="translate(98 378)" fill="url(#linear-gradient-2)"/>
    <text id="點擊_取號" data-name="點擊
取號" transform="translate(162 499)" fill="#10629a" font-size="60" font-family="SourceHanSansTW-Bold, Source Han Sans TW" font-weight="700"><tspan x="0" y="0">點擊</tspan><tspan x="0" y="65">取號</tspan></text>
    <g id="hand-index-thumb" transform="translate(272.817 587.206) rotate(-45)">
      <path id="Path_392" data-name="Path 392" d="M15.188,2.987c-.932,0-1.688,1-1.688,2.241V28.38a1.561,1.561,0,0,1-.694,1.381.933.933,0,0,1-1.227-.324l-5.423-7.2a.963.963,0,0,0-1.538-.125,1.9,1.9,0,0,0-.282,2.011l5.652,12.5,2.772,7.363a1.14,1.14,0,0,0,1.006.825H27.945a1.116,1.116,0,0,0,.977-.753l3.139-7.3a9.284,9.284,0,0,0,.713-2.961l.612-8.111a3.654,3.654,0,0,0-.57-2.3,2.053,2.053,0,0,0-1.669-.983h-.772V25.39c0,.825-.5,1.494-1.125,1.494s-1.125-.669-1.125-1.494V21.371q-.214-.4-.45-.777a4.161,4.161,0,0,0-1.093-1.285,3.288,3.288,0,0,0-1.593-.117q-.119.013-.238.029V23.9c0,.825-.5,1.494-1.125,1.494S22.5,24.724,22.5,23.9V17.882a1.152,1.152,0,0,0-.337-.939,3.281,3.281,0,0,0-1.008-.543,7.1,7.1,0,0,0-1.836-.081l-.193.012V23.9c0,.825-.5,1.494-1.125,1.494s-1.125-.669-1.125-1.494V5.229c0-1.238-.756-2.242-1.689-2.241Zm3.937,10.355V5.229C19.125,2.341,17.362,0,15.188,0S11.25,2.341,11.25,5.229V24.775l-3.5-4.652a2.824,2.824,0,0,0-4.507-.36,5.575,5.575,0,0,0-.832,5.893L8.013,38.061l2.734,7.26A3.421,3.421,0,0,0,13.766,47.8H27.945a3.349,3.349,0,0,0,2.929-2.258l3.139-7.292a13,13,0,0,0,1-4.149l.612-8.111a7.308,7.308,0,0,0-1.141-4.6,4.105,4.105,0,0,0-3.337-1.966H29.837q-.211-.379-.439-.741a6.24,6.24,0,0,0-1.98-2.139,4.777,4.777,0,0,0-2.6-.323l-.3.036a3.642,3.642,0,0,0-1.26-1.919,5.167,5.167,0,0,0-1.66-.86,8.424,8.424,0,0,0-2.363-.137l-.108.007ZM23.837,19.391Z" fill="#ff4e00" fill-rule="evenodd"/>
    </g>
    <g id="Group_101" data-name="Group 101" transform="translate(1 1)">
      <text id="目前等候人數_" data-name="目前等候人數 " transform="translate(139 663)" fill="#10629a" font-size="20" font-family="SourceHanSansTW-Bold, Source Han Sans TW" font-weight="700"><tspan x="0" y="0">目前等候人數 </tspan></text>
      <text id="_25" data-name="25" transform="translate(268 667)" fill="#ff2930" font-size="30" font-family="SourceHanSansTW-Bold, Source Han Sans TW" font-weight="700"><tspan x="0" y="0">25</tspan></text>
    </g>
  </g>
</svg>
