<svg id="Group_11" data-name="Group 11" xmlns="http://www.w3.org/2000/svg" width="30" height="30" viewBox="0 0 30 30">
  <path id="Path_12" data-name="Path 12" d="M1562.8,61.141a15,15,0,1,1,15.046-14.922A15.008,15.008,0,0,1,1562.8,61.141Zm-.475-21.9a1.008,1.008,0,0,0-.231-.044c-2.189.24-4.377.476-6.563.74a.611.611,0,0,0-.391.394c-.217.89-.43,1.784-.564,2.688-.127.853-.154,1.72-.225,2.594h7.974Zm1.065-.154V45.61h8.041c-.216-1.5-.446-2.937-.623-4.381-.117-.957-.535-1.515-1.567-1.484a5.236,5.236,0,0,1-.693-.106C1566.853,39.453,1565.15,39.273,1563.395,39.085Zm-9,7.584a19.213,19.213,0,0,0,.8,5.444c.033.114.248.226.392.25,1.192.2,2.385.413,3.584.55,1.037.118,2.084.143,3.144.21V46.669Zm8.988-.006v6.419a5.905,5.905,0,0,0,.609,0c1.918-.206,3.834-.434,5.755-.617a.9.9,0,0,0,.933-.875c.089-.6.28-1.178.361-1.775.138-1.032.225-2.072.337-3.148Zm-7.707-7.879,6.641-.72v-5.84C1559.431,32.346,1556.7,35.562,1555.673,38.784Zm6.645,21.278V54.221l-6.639-.722C1556.585,56.458,1559.271,59.91,1562.318,60.061Zm7.724-21.275c-.976-3.415-4.434-6.813-6.651-6.517v5.794Zm-6.671,21.267c2.542-.008,5.714-3.163,6.67-6.556l-6.67.727ZM1548.9,45.615h4.351l.771-5.443c-1.256.218-2.5.43-3.749.658-.154.028-.381.1-.426.215A12.406,12.406,0,0,0,1548.9,45.615Zm22.781-5.443.775,5.446h4.351a12.662,12.662,0,0,0-.939-4.566.378.378,0,0,0-.254-.187C1574.3,40.625,1572.978,40.4,1571.679,40.173ZM1548.9,46.667a12.688,12.688,0,0,0,.943,4.573.39.39,0,0,0,.26.18c1.316.238,2.633.465,3.922.691l-.773-5.444Zm22.784,5.444c1.252-.218,2.5-.428,3.744-.659.165-.031.4-.134.451-.265a12.283,12.283,0,0,0,.929-4.518h-4.351Zm-13.444-19.186a14.3,14.3,0,0,0-7.852,6.856c1.309-.227,2.475-.448,3.648-.622a.721.721,0,0,0,.6-.512c.555-1.156,1.088-2.332,1.753-3.423A22.62,22.62,0,0,1,1558.237,32.925Zm17.081,6.854a14.242,14.242,0,0,0-7.782-6.825,33.332,33.332,0,0,1,2.143,2.821c.594.973.994,2.065,1.492,3.1a.465.465,0,0,0,.286.232C1572.7,39.332,1573.946,39.542,1575.318,39.779ZM1550.385,52.5a13.782,13.782,0,0,0,7.744,6.735,15.22,15.22,0,0,1-3.6-5.83.429.429,0,0,0-.286-.231C1553,52.95,1551.754,52.74,1550.385,52.5Zm17.136,6.742c2.542-.418,7.134-4.445,7.661-6.72-1.167.2-2.315.42-3.471.587a.734.734,0,0,0-.663.6,12.739,12.739,0,0,1-2.181,3.982C1568.444,58.214,1567.987,58.709,1567.521,59.246Z" transform="translate(-1547.851 -31.141)" fill="#069"/>
  <path id="Path_13" data-name="Path 13" d="M1562.23,38.975V45.41h-8.073c.072-.882.1-1.758.228-2.62.136-.914.352-1.816.571-2.715a.618.618,0,0,1,.4-.4c2.213-.267,4.428-.505,6.644-.748A1.021,1.021,0,0,1,1562.23,38.975Z" transform="translate(-1547.682 -30.898)" fill="#fff"/>
  <path id="Path_14" data-name="Path 14" d="M1562.922,38.824c1.777.19,3.5.372,5.223.56a5.317,5.317,0,0,0,.7.108c1.044-.031,1.468.531,1.586,1.5.179,1.458.411,2.909.631,4.424h-8.141Z" transform="translate(-1547.449 -30.902)" fill="#fff"/>
  <path id="Path_15" data-name="Path 15" d="M1554.193,46.159h8.018v6.518c-1.073-.068-2.133-.093-3.184-.212-1.214-.139-2.421-.355-3.628-.555-.146-.024-.363-.138-.4-.253A19.356,19.356,0,0,1,1554.193,46.159Z" transform="translate(-1547.681 -30.673)" fill="#fff"/>
  <path id="Path_16" data-name="Path 16" d="M1562.908,46.153H1571c-.114,1.087-.2,2.137-.341,3.179-.082.6-.275,1.19-.365,1.793a.912.912,0,0,1-.945.883c-1.944.185-3.884.416-5.826.623a5.994,5.994,0,0,1-.616,0Z" transform="translate(-1547.449 -30.673)" fill="#fff"/>
  <path id="Path_17" data-name="Path 17" d="M1555.435,38.813c1.038-3.254,3.8-6.5,6.723-6.624v5.9Z" transform="translate(-1547.641 -31.095)" fill="#fff"/>
  <path id="Path_18" data-name="Path 18" d="M1562.162,59.392c-3.085-.152-5.8-3.639-6.721-6.627l6.721.729Z" transform="translate(-1547.64 -30.482)" fill="#fff"/>
  <path id="Path_19" data-name="Path 19" d="M1569.652,38.814l-6.734-.73V32.233C1565.163,31.934,1568.664,35.365,1569.652,38.814Z" transform="translate(-1547.433 -31.094)" fill="#fff"/>
  <path id="Path_20" data-name="Path 20" d="M1562.9,59.384V53.5l6.753-.734C1568.683,56.19,1565.473,59.376,1562.9,59.384Z" transform="translate(-1547.434 -30.483)" fill="#fff"/>
  <path id="Path_21" data-name="Path 21" d="M1548.866,45.372a12.5,12.5,0,0,1,.96-4.615c.046-.114.276-.189.431-.217,1.261-.23,2.524-.444,3.8-.664l-.781,5.5Z" transform="translate(-1547.806 -30.864)" fill="#fff"/>
  <path id="Path_22" data-name="Path 22" d="M1570.955,39.876c1.315.229,2.649.457,3.982.7a.383.383,0,0,1,.257.189,12.759,12.759,0,0,1,.95,4.611h-4.405Z" transform="translate(-1547.203 -30.864)" fill="#fff"/>
  <path id="Path_23" data-name="Path 23" d="M1548.865,46.157h4.405l.783,5.5c-1.305-.228-2.639-.457-3.971-.7a.394.394,0,0,1-.263-.182A12.785,12.785,0,0,1,1548.865,46.157Z" transform="translate(-1547.806 -30.665)" fill="#fff"/>
  <path id="Path_24" data-name="Path 24" d="M1570.956,51.654l.782-5.5h4.405a12.378,12.378,0,0,1-.941,4.563c-.052.132-.289.236-.456.267C1573.487,51.222,1572.224,51.434,1570.956,51.654Z" transform="translate(-1547.203 -30.665)" fill="#fff"/>
  <path id="Path_25" data-name="Path 25" d="M1558.257,32.866a22.857,22.857,0,0,0-1.869,2.321c-.673,1.1-1.213,2.29-1.775,3.457a.729.729,0,0,1-.612.517c-1.187.176-2.368.4-3.693.629A14.466,14.466,0,0,1,1558.257,32.866Z" transform="translate(-1547.742 -31.065)" fill="#fff"/>
  <path id="Path_26" data-name="Path 26" d="M1574.816,39.786c-1.389-.239-2.65-.451-3.908-.681a.47.47,0,0,1-.289-.234c-.5-1.044-.909-2.147-1.511-3.129a33.658,33.658,0,0,0-2.17-2.848A14.408,14.408,0,0,1,1574.816,39.786Z" transform="translate(-1547.38 -31.064)" fill="#fff"/>
  <path id="Path_27" data-name="Path 27" d="M1550.308,51.8c1.386.239,2.647.451,3.905.681a.434.434,0,0,1,.289.233,15.366,15.366,0,0,0,3.645,5.888A13.943,13.943,0,0,1,1550.308,51.8Z" transform="translate(-1547.742 -30.525)" fill="#fff"/>
  <path id="Path_28" data-name="Path 28" d="M1566.923,58.61c.472-.542.935-1.042,1.362-1.569a12.852,12.852,0,0,0,2.208-4.021.742.742,0,0,1,.671-.6c1.171-.169,2.333-.389,3.515-.593C1574.145,54.121,1569.5,58.188,1566.923,58.61Z" transform="translate(-1547.381 -30.524)" fill="#fff"/>
</svg>
