<svg xmlns="http://www.w3.org/2000/svg" width="29.357" height="31.179" viewBox="0 0 29.357 31.179">
  <path id="line-brands_2_" data-name="line-brands (2)" d="M17.83,43.984v4.948a.214.214,0,0,1-.21.223h-.747a.213.213,0,0,1-.17-.09L14.567,46v2.937a.214.214,0,0,1-.21.223H13.61a.214.214,0,0,1-.21-.223V43.991a.214.214,0,0,1,.21-.223h.74a.2.2,0,0,1,.17.1l2.136,3.062V43.991a.214.214,0,0,1,.21-.223h.747A.213.213,0,0,1,17.83,43.984Zm-5.373-.223H11.71a.214.214,0,0,0-.21.223v4.948a.214.214,0,0,0,.21.223h.747a.214.214,0,0,0,.21-.223V43.984A.218.218,0,0,0,12.457,43.761Zm-1.8,4.148H8.617V43.984a.214.214,0,0,0-.21-.223H7.66a.214.214,0,0,0-.21.223v4.948a.211.211,0,0,0,.059.153.215.215,0,0,0,.144.063h2.995a.214.214,0,0,0,.21-.223v-.793a.217.217,0,0,0-.2-.223Zm11.107-4.148H18.767a.218.218,0,0,0-.21.223v4.948a.218.218,0,0,0,.21.223h2.995a.214.214,0,0,0,.21-.223v-.793a.214.214,0,0,0-.21-.223H19.724v-.835h2.038a.214.214,0,0,0,.21-.223v-.8a.214.214,0,0,0-.21-.223H19.724V45h2.038a.214.214,0,0,0,.21-.223v-.793A.227.227,0,0,0,21.762,43.761Zm7.595-6.076V57.541A5.507,5.507,0,0,1,24,63.178H5.308A5.518,5.518,0,0,1,0,57.492V37.637A5.512,5.512,0,0,1,5.354,32h18.7A5.514,5.514,0,0,1,29.357,37.686ZM25.32,46.218c0-5.08-4.8-9.214-10.688-9.214S3.945,41.138,3.945,46.218c0,4.552,3.8,8.365,8.938,9.089,1.252.285,1.107.773.826,2.561-.046.285-.216,1.12.924.612a34.71,34.71,0,0,0,8.4-6.591A8.484,8.484,0,0,0,25.32,46.218Z" transform="translate(0 -32)" fill="#00b900"/>
</svg>
