<svg xmlns="http://www.w3.org/2000/svg" width="30" height="20.341" viewBox="0 0 30 20.341">
  <path id="Path_69" data-name="Path 69" d="M893.152,1224.866c0-.928-.075-1-1-1q-1.975,0-3.949,0h-3.367c-3.091,0-8.845,0-10.157,0h-.01c-.612,0-.767.256-.833.479a.594.594,0,0,0,.079.541.82.82,0,0,0,.692.278c2.058-.024,8.482-.017,12.32-.014l2.533,0h1.207l-.544.577c-.119.127-.207.221-.3.312q-4.846,4.849-9.694,9.7a2.471,2.471,0,0,1-3.942.014q-4.87-4.867-9.736-9.738c-.088-.089-.172-.181-.281-.3l-.2-.224-.306-.335h1.713v0h.213a.572.572,0,0,0,.639-.568.625.625,0,0,0-.542-.69,1.285,1.285,0,0,0-.333-.023H865.97c-.091,0-.166,0-.228,0v0h-.048v0c-.062,0-.138,0-.23,0h-1.292c-.808,0-1.017.207-1.017,1q0,9.151,0,18.3c0,.838.2,1.031,1.05,1.031h27.9c.856,0,1.052-.193,1.052-1.029q0-9.151,0-18.3m-28.687,1.3,7.794,7.8-7.794,7.794Zm1.059,16.693,8.029-8.029.141.149c.161.17.324.344.49.522.368.394.748.8,1.142,1.193a3.713,3.713,0,0,0,5.649,0c.393-.391.784-.786,1.152-1.159l.6-.607,7.927,7.927Zm26.3-1.075-7.9-7.9,7.9-7.9Z" transform="translate(-863.153 -1223.857)" fill="#666"/>
</svg>
