<svg id="plus" xmlns="http://www.w3.org/2000/svg" width="15.851" height="15.851" viewBox="0 0 15.851 15.851">
  <path id="Path_1294" data-name="Path 1294" d="M15.8,7.875a.881.881,0,0,1,.881.881V15.8a.881.881,0,0,1-.881.881H8.756a.881.881,0,0,1,0-1.761H14.92V8.756A.881.881,0,0,1,15.8,7.875Z" transform="translate(-7.875 -7.875)" fill-rule="evenodd"/>
  <path id="Path_1295" data-name="Path 1295" d="M16.875,17.756a.881.881,0,0,1,.881-.881H24.8a.881.881,0,1,1,0,1.761H18.636V24.8a.881.881,0,1,1-1.761,0Z" transform="translate(-9.83 -9.83)" fill-rule="evenodd"/>
</svg>
