<svg xmlns="http://www.w3.org/2000/svg" width="24" height="24" viewBox="0 0 24 24">
  <g id="Group_930" data-name="Group 930" transform="translate(-52.128 -701.81)">
    <path id="Path_1109" data-name="Path 1109" d="M598.128,726.81a12,12,0,1,1-12-12,12,12,0,0,1,12,12" transform="translate(-522 -13)" fill="#c00"/>
    <path id="Path_1110" data-name="Path 1110" d="M589.945,726.81c-.025.03-.049.062-.076.091l-4.65,4.65c-.028.028-.06.051-.09.076v.03a1.948,1.948,0,0,0,1.009.491,1.714,1.714,0,0,0,1.494-.464q1.2-1.168,2.37-2.37a1.789,1.789,0,0,0,.055-2.4c-.029-.034-.055-.069-.082-.1Z" transform="translate(-528.854 -20.476)" fill="#fff"/>
    <path id="Path_1111" data-name="Path 1111" d="M597.011,746.716l8.026-8.026c-.1-.082-.2-.181-.319-.263a2.682,2.682,0,0,0-3.429.22c-.786.753-1.545,1.534-2.314,2.3-.663.663-1.336,1.317-1.986,1.993a2.692,2.692,0,0,0-.1,3.641c.039.046.081.088.122.132" transform="translate(-535.984 -27.616)" fill="#fff"/>
    <path id="Path_1112" data-name="Path 1112" d="M591.908,736.515l2.107,3.118,3.937-3.936-3.119-2.108-2.925,2.925" transform="translate(-533.106 -24.731)" fill="#fff"/>
    <path id="Path_1113" data-name="Path 1113" d="M613.247,755.475l.6-.6-4.858-4.858-.6.6,4.858,4.858" transform="translate(-543.352 -34.94)" fill="#fff"/>
  </g>
</svg>
