<svg xmlns="http://www.w3.org/2000/svg" width="20" height="20" viewBox="0 0 20 20">
  <g id="unlink-line" transform="translate(-3.59 -5)">
    <path id="Path_1300" data-name="Path 1300" d="M4.619,5,3.59,6.029,10.157,12.6l-3.276,3.2a4.312,4.312,0,0,0,0,6.122,4.378,4.378,0,0,0,6.158,0l3.254-3.21,6.3,6.3,1-1.029ZM12.01,20.877a2.919,2.919,0,0,1-4.1,0,2.86,2.86,0,0,1,0-4.05L11.186,13.6l4.072,4.072Z" transform="translate(0 0)" fill="#555"/>
    <path id="Path_1301" data-name="Path 1301" d="M19.865,8.381a2.919,2.919,0,0,1,4.1,0,2.86,2.86,0,0,1,0,4.05L20.47,15.9l1.036,1.073L25,13.5a4.32,4.32,0,0,0,0-6.122,4.378,4.378,0,0,0-6.158,0L15.37,10.84,16.4,11.868Z" transform="translate(-3.185 -0.301)" fill="#555"/>
  </g>
</svg>
