<svg xmlns="http://www.w3.org/2000/svg" width="18.663" height="16" viewBox="0 0 18.663 16">
  <g id="Group_963" data-name="Group 963" transform="translate(-1849.297 3175.835)">
    <g id="Icon_ionic-ios-eye-off" data-name="Icon ionic-ios-eye-off" transform="translate(1849.297 -3175.835)">
      <path id="Path_42" data-name="Path 42" d="M5.515,4.67a.592.592,0,0,0-.837.837l14.812,14.82a.587.587,0,0,0,.571.15.577.577,0,0,0,.267-.154.591.591,0,0,0,0-.833Z" transform="translate(-3.17 -4.499)" fill="#d0d0d0"/>
      <g id="Group_35" data-name="Group 35" transform="translate(0 2)">
        <path id="Path_43" data-name="Path 43" d="M11.759,19.11A3.746,3.746,0,0,1,8.2,13.76L5.971,11.531a29.226,29.226,0,0,0-3.546,3.387.659.659,0,0,0,0,.887c2.7,2.987,5.087,5.558,9.154,5.558a8.022,8.022,0,0,0,3.429-.8l-1.812-1.812A3.786,3.786,0,0,1,11.759,19.11Z" transform="translate(-2.252 -9.365)" fill="#d0d0d0"/>
        <path id="Path_44" data-name="Path 44" d="M24.8,14.291a.654.654,0,0,0,.021-.862c-2.179-2.646-5.2-5.554-9.187-5.554a7.8,7.8,0,0,0-3.416.792l1.821,1.821a3.671,3.671,0,0,1,1.429-.358,3.746,3.746,0,0,1,3.562,5.35l2.229,2.229A27.56,27.56,0,0,0,24.8,14.291Z" transform="translate(-6.313 -7.875)" fill="#d0d0d0"/>
        <path id="Path_45" data-name="Path 45" d="M13.509,17.671a2.677,2.677,0,0,0,2.454,2.454,2.6,2.6,0,0,0,.975-.108l-3.325-3.325A2.725,2.725,0,0,0,13.509,17.671Z" transform="translate(-6.835 -11.467)" fill="#d0d0d0"/>
        <path id="Path_46" data-name="Path 46" d="M21.887,17.888c0-.054,0-.108,0-.162a1.848,1.848,0,0,1-.758.162c-.046,0-.087,0-.129,0l.775.779A2.664,2.664,0,0,0,21.887,17.888Z" transform="translate(-9.889 -11.889)" fill="#d0d0d0"/>
        <path id="Path_47" data-name="Path 47" d="M17.47,14.208a1.958,1.958,0,0,1,.129-.7c-.042,0-.083,0-.129,0a2.636,2.636,0,0,0-.771.117l.779.779C17.474,14.333,17.47,14.271,17.47,14.208Z" transform="translate(-8.138 -10.167)" fill="#d0d0d0"/>
      </g>
    </g>
  </g>
</svg>
