<svg xmlns="http://www.w3.org/2000/svg" width="43.381" height="38.97" viewBox="0 0 43.381 38.97">
  <path id="weixin-brands" d="M42.357,43.793a10.461,10.461,0,0,1,1.483.1C42.531,37.07,35.9,32,28.357,32,19.9,32,13,38.331,13,46.384c0,4.644,2.311,8.479,6.144,11.445l-1.522,5.1,5.363-2.966a24.039,24.039,0,0,0,5.379.844c.489,0,.954-.026,1.443-.07A13.363,13.363,0,0,1,42.357,43.793Zm-8.242-4.6a1.91,1.91,0,0,1,1.909,2.122,1.9,1.9,0,0,1-1.909,2.1,2.122,2.122,0,1,1,0-4.227ZM23.356,43.419a2.122,2.122,0,1,1,0-4.227,1.908,1.908,0,0,1,1.925,2.122A1.9,1.9,0,0,1,23.356,43.419ZM56.381,56.994c0-6.775-6.144-12.288-13.046-12.288-7.312,0-13.046,5.514-13.046,12.288s5.742,12.288,13.046,12.288a18.282,18.282,0,0,0,4.622-.861l4.212,2.548L51,66.743C54.094,64.187,56.381,60.8,56.381,56.994ZM39.1,54.864a1.7,1.7,0,0,1,0-3.383,1.706,1.706,0,1,1,0,3.383Zm8.447,0a1.7,1.7,0,0,1,0-3.383,1.706,1.706,0,1,1,0,3.383Z" transform="translate(-13 -32)" fill="#01ce0d"/>
</svg>
