<svg xmlns="http://www.w3.org/2000/svg" width="123.356" height="169.738" viewBox="0 0 123.356 169.738">
  <g id="Group_1090" data-name="Group 1090" transform="translate(-1294 -298)">
    <g id="Group_21" data-name="Group 21" transform="translate(17.391 4.034)">
      <path id="Path_43" data-name="Path 43" d="M1377.286,337.019q-11.494,0-22.988,0l5.836-1.493.022-.017c.147-.108.3-.211.453-.313a4.984,4.984,0,0,0,.979-.779,3.48,3.48,0,0,0,.686-3.363l-1.176-4.582q-1.52-5.931-3.048-11.859a.444.444,0,0,1,.18-.556,3.4,3.4,0,0,0,1.242-2.617l.018-.49-.785-3.087-.024-.05c-.109-.146-.211-.3-.314-.453a5.038,5.038,0,0,0-.782-.981,3.413,3.413,0,0,0-3.291-.7q-1.381.35-2.76.706l-1.373.353c.017-.065.034-.129.05-.192a7.644,7.644,0,0,0,.195-.855,5.6,5.6,0,0,0-2.189-5.587,5.725,5.725,0,0,0-5.89-.8,5.489,5.489,0,0,0-3.448,4.311c-.2.873-.336,1.772-.471,2.642-.061.391-.122.783-.188,1.174l-.019.113-.048-.068c-.16-.225-.311-.437-.479-.635-.255-.3-.505-.608-.755-.916a23.283,23.283,0,0,0-1.985-2.237,5.407,5.407,0,0,0-6.461-.714,5.869,5.869,0,0,0-1.236,9.508l.1.1c-.057.018-.109.033-.162.047L1325.7,313q-1.233.314-2.461.633a3.635,3.635,0,0,0-2.717,4.605l.113.452c.127.508.254,1.016.394,1.519a3.5,3.5,0,0,0,2.914,2.7c.165.03.18.1.218.254l.015.061.423,1.65q1.555,6.068,3.11,12.138h-6.478c-3.179.007-6.18.013-9.2-.053a1.4,1.4,0,0,1-.73-.661c-.508-1.441-.974-2.93-1.424-4.371-.371-1.186-.742-2.373-1.14-3.55a7.855,7.855,0,0,0-7.412-5.531c-1.834-.06-4-.1-6.181.026a1.533,1.533,0,0,0-.362.066,1.749,1.749,0,0,0-.068,3.28,1.508,1.508,0,0,0,.366.079c1.219.1,2.453.084,3.646.07.593-.007,1.186-.014,1.778-.007,2.856.032,4.24,1.064,5.1,3.808q1.23,3.9,2.466,7.8c2.1,6.645,4.277,13.516,6.36,20.29.915,2.977,1.859,6.048,4.994,7.775a8.767,8.767,0,0,0-2.616,7.188c.525,4.589,4.176,7.73,9.086,7.816.154,0,.309,0,.462-.007.743-.024,1.051-.033,1.33.684a5.684,5.684,0,0,0,5.535,3.7h.056a6.155,6.155,0,0,0,5.677-3.674,1.515,1.515,0,0,1,.849-.664c4.381-.055,8.84-.05,13.15-.047l3.152,0c.061.117.117.225.17.336,1.249,2.624,3.337,4.09,5.726,4.09a6.177,6.177,0,0,0,1.175-.115,6.1,6.1,0,0,0,4.992-5.827,6.02,6.02,0,0,0-4.549-6.155c-3.015-.773-5.456.428-7.257,3.565a1.505,1.505,0,0,1-.972.531c-5.44.068-10.472.065-15.387-.005a1.456,1.456,0,0,1-1.077-.688,6.216,6.216,0,0,0-11.293.018,2.219,2.219,0,0,1-.507.654,9.8,9.8,0,0,1-3.089-.2,5.118,5.118,0,0,1,1.329-10.049c5.235-.039,10.56-.038,15.711-.033q4.023,0,8.045,0h.25a4.679,4.679,0,0,0,1.814-.229,2.082,2.082,0,0,0,1.084-1.694,1.809,1.809,0,0,0-1.254-1.487,4.651,4.651,0,0,0-1.481-.126,3.431,3.431,0,0,1-.363.006q-9.126,0-18.251,0h-4.211c-6.486,0-6.988-.37-8.952-6.606-1.236-3.925-2.467-7.851-3.707-11.808l-1.426-4.547h63.573l-1.371,4.959c-1.283,4.642-2.55,9.229-3.84,13.81-.8,2.823-2.488,4.113-5.487,4.184-.659.015-1.32.009-1.98,0-1.062-.011-2.16-.021-3.249.061a1.343,1.343,0,0,0-.348.073,1.7,1.7,0,0,0-1.132,1.613,1.685,1.685,0,0,0,1.051,1.643,1.312,1.312,0,0,0,.363.086,47.409,47.409,0,0,0,4.762.069l.5-.009a9.562,9.562,0,0,0,8.982-6.927q2.773-9.909,5.5-19.832c.3-1.078.5-2.023.006-2.676S1378.45,337.02,1377.286,337.019Zm-15.232,39.669h.059a2.556,2.556,0,0,1,1.819.81,2.634,2.634,0,0,1,.7,1.927,2.592,2.592,0,0,1-2.614,2.48,2.531,2.531,0,0,1-1.808-.79,2.65,2.65,0,0,1-.709-1.942A2.578,2.578,0,0,1,1362.054,376.688Zm-30.032.341a2.506,2.506,0,0,1,1.255-.34,2.653,2.653,0,0,1,1.318.361,2.528,2.528,0,0,1,.882.844h0a2.506,2.506,0,0,1,.117,2.61,2.686,2.686,0,0,1-2.3,1.4h0a2.627,2.627,0,0,1-1.85-.792,2.574,2.574,0,0,1-.771-1.845A2.648,2.648,0,0,1,1332.022,377.029Zm27.732-45.4c.228.891-.03,1.327-.921,1.556l-8.577,2.2-4.536-17.7,9.816-2.516Zm-4.912-23.429a1.065,1.065,0,0,1,1.51.889l.128.492c.128.49.256.981.374,1.474a.992.992,0,0,1-.745,1.277q-4.3,1.11-8.6,2.208l-2.436.618L1344,310.994c.076-.025.15-.048.224-.068Zm-14.045-.494a22.291,22.291,0,0,1,.822-4.266,2.793,2.793,0,0,1,1.555-1.711,3.457,3.457,0,0,1,2.673-.05,3.37,3.37,0,0,1,2.038,2.575,3.3,3.3,0,0,1-1.19,3.029,2.931,2.931,0,0,1-1.079.585c-1.248.345-2.482.658-3.787.988-.407.1-.816.206-1.228.312C1340.673,308.683,1340.735,308.2,1340.8,307.71Zm.66,3.944,6.247,24.37-3.875.994h-.281l-6.229-24.3Zm-12.565-5.809a3.7,3.7,0,0,1,1.617-.949,2.683,2.683,0,0,1,.764-.085,3.559,3.559,0,0,1,2.46,1.291c.815.887,1.533,1.829,2.294,2.826.291.381.582.764.88,1.144-.515.133-1.022.269-1.524.4-1.324.353-2.575.688-3.858.953a3.148,3.148,0,0,1-3.261-1.811A3.3,3.3,0,0,1,1328.892,305.845Zm-5.4,13.555-.134-.515c-.122-.471-.244-.942-.358-1.414a1,1,0,0,1,.767-1.3q2.591-.669,5.183-1.333l3.577-.916,2.191-.561.071-.015,1.072,4.182-10.84,2.779C1324.154,320.531,1323.711,320.267,1323.488,319.4Zm3.189,3.172,9.815-2.516,4.348,16.962h-10.46Z" fill="#f66"/>
      <path id="Path_44" data-name="Path 44" d="M1312.077,310.463h.051a6.5,6.5,0,0,0,6.414-6.415,6.3,6.3,0,0,0-1.886-4.5,6.4,6.4,0,0,0-4.535-1.874h-.046a6.332,6.332,0,0,0-6.321,6.476A6.419,6.419,0,0,0,1312.077,310.463Zm-3.1-9.542a4.4,4.4,0,0,1,3.146-1.291h.014a4.458,4.458,0,0,1,3.2,1.367,4.306,4.306,0,0,1,1.25,3.116,4.664,4.664,0,0,1-4.379,4.391,4.36,4.36,0,0,1-3.126-1.24,4.449,4.449,0,0,1-1.374-3.184A4.393,4.393,0,0,1,1308.981,300.921Z" fill="#f66"/>
      <path id="Path_45" data-name="Path 45" d="M1364.6,300.677h.026a3.414,3.414,0,0,0,3.368-3.367,3.308,3.308,0,0,0-.991-2.36,3.358,3.358,0,0,0-2.38-.984h-.025a3.317,3.317,0,0,0-2.364.993,3.369,3.369,0,0,0,2.366,5.718Zm-1.626-5.009a2.313,2.313,0,0,1,1.652-.677h.007a2.338,2.338,0,0,1,1.677.717,2.252,2.252,0,0,1,.656,1.636,2.447,2.447,0,0,1-2.3,2.3,2.287,2.287,0,0,1-1.641-.651,2.333,2.333,0,0,1-.721-1.672A2.305,2.305,0,0,1,1362.975,295.668Z" fill="#f66"/>
      <path id="Path_46" data-name="Path 46" d="M1377.98,325.07a5.637,5.637,0,0,0-4.021,1.57,5.546,5.546,0,0,0,3.914,9.529h.007a5.55,5.55,0,0,0,.1-11.1Zm2.363,7.93a3.379,3.379,0,0,1-2.426.993,3.3,3.3,0,0,1-2.466-.932,3.392,3.392,0,0,1-.954-2.455,3.242,3.242,0,0,1,3.206-3.363l.169,0a3.406,3.406,0,0,1,2.354.878,3.346,3.346,0,0,1,1.023,2.391A3.421,3.421,0,0,1,1380.343,333Z" fill="#f66"/>
      <path id="Path_47" data-name="Path 47" d="M1317.143,344.064a1.09,1.09,0,1,0,1.089-1.089A1.091,1.091,0,0,0,1317.143,344.064Z" fill="#f66"/>
      <path id="Path_48" data-name="Path 48" d="M1323.007,342.975a1.089,1.089,0,1,0,0,2.179h15.526a1.089,1.089,0,1,0,0-2.179Z" fill="#f66"/>
    </g>
    <g id="Group_24" data-name="Group 24" transform="translate(13.803 6.199)">
      <g id="Group_23" data-name="Group 23">
        <g id="Group_22" data-name="Group 22">
          <path id="Path_49" data-name="Path 49" d="M1402.553,316.8v83.06a60.678,60.678,0,0,1-60.678,60.678h0a60.679,60.679,0,0,1-60.678-60.678V316.8" fill="none" stroke="#f66" stroke-miterlimit="10" stroke-width="2"/>
        </g>
      </g>
    </g>
  </g>
</svg>
