<svg xmlns="http://www.w3.org/2000/svg" width="101.176" height="101.174" viewBox="0 0 101.176 101.174">
  <g id="Group_56" data-name="Group 56" transform="translate(-1312.961 -872.914)">
    <path id="Path_96" data-name="Path 96" d="M1348.4,898.238c0,1.418.047,2.838-.013,4.253a5.813,5.813,0,0,1-5.883,5.842c-2.755.08-5.516.068-8.272.008a5.794,5.794,0,0,1-6.026-5.709,81.666,81.666,0,0,1,0-8.74,5.773,5.773,0,0,1,5.77-5.738c2.829-.145,5.676-.139,8.507-.009,3.666.168,5.848,2.582,5.918,6.311C1348.421,895.716,1348.4,896.977,1348.4,898.238Zm-10.051-5.033c-5.1,0-5.1,0-5.1,5.077,0,4.972,0,4.972,4.96,4.972,5.089,0,5.089,0,5.089-5.07C1343.3,893.205,1343.3,893.205,1338.347,893.205Z"/>
    <path id="Path_97" data-name="Path 97" d="M1378.7,898.3c0-1.339-.028-2.679.006-4.018.091-3.558,2.3-5.956,5.854-6.13,2.83-.139,5.677-.134,8.507,0a5.768,5.768,0,0,1,5.824,5.684,75.034,75.034,0,0,1-.022,8.975,5.73,5.73,0,0,1-5.94,5.531c-2.677.067-5.358.054-8.036.006-3.787-.068-6.112-2.444-6.189-6.267C1378.675,900.818,1378.7,899.557,1378.7,898.3Zm10.119,4.957c5.031,0,5.031,0,5.031-5.137v-.236c0-4.676,0-4.676-4.791-4.676-5.258,0-5.258,0-5.258,5.144C1383.8,903.254,1383.8,903.254,1388.816,903.254Z"/>
    <path id="Path_98" data-name="Path 98" d="M1348.4,948.687c0,1.339.029,2.679-.006,4.018-.091,3.567-2.284,5.965-5.842,6.145-2.829.143-5.677.138-8.506,0a5.833,5.833,0,0,1-5.859-5.907c-.124-2.752-.117-5.517-.007-8.27.149-3.7,2.528-5.956,6.212-6.019q3.9-.067,7.8,0c3.792.066,6.123,2.434,6.2,6.249C1348.423,946.165,1348.4,947.426,1348.4,948.687Zm-5.1-.041c0-4.9,0-4.9-4.788-4.9-5.261,0-5.261,0-5.261,5.141,0,4.908,0,4.908,4.8,4.908C1343.3,953.8,1343.3,953.8,1343.3,948.646Z"/>
    <path id="Path_99" data-name="Path 99" d="M1313.019,890.11c0-1.578-.075-3.16.013-4.733.39-6.982,5.253-11.963,12.224-12.361,3.3-.189,6.626-.059,9.94-.052,1.717,0,3.052.721,3.042,2.562-.009,1.819-1.273,2.551-3.04,2.536-3.077-.027-6.156-.04-9.233,0-4.7.065-7.8,3.2-7.859,7.928q-.057,4.5,0,8.994c.026,1.848-.647,3.229-2.609,3.207-1.836-.021-2.495-1.406-2.5-3.112,0-1.657,0-3.314,0-4.971Z"/>
    <path id="Path_100" data-name="Path 100" d="M1409,890.253c0-1.42.019-2.841,0-4.261-.078-4.739-3.158-7.862-7.863-7.928q-4.5-.063-9,0c-1.827.029-3.267-.568-3.274-2.542s1.486-2.579,3.273-2.572c3.078.011,6.158-.078,9.233.027,7.208.246,12.326,5.222,12.684,12.4.161,3.227.044,6.469.044,9.7,0,1.7-.66,3.091-2.5,3.112-1.966.022-2.656-1.358-2.606-3.206C1409.034,893.41,1409,891.831,1409,890.253Z"/>
    <path id="Path_101" data-name="Path 101" d="M1318.1,956.739c0,1.421-.018,2.841,0,4.261.075,4.731,3.159,7.866,7.856,7.936q4.5.066,8.995,0c1.822-.029,3.27.552,3.28,2.532s-1.476,2.588-3.265,2.582c-3.077-.01-6.158.08-9.232-.027-7.212-.251-12.34-5.233-12.691-12.39-.159-3.227-.042-6.469-.045-9.7,0-1.705.654-3.093,2.491-3.119,1.964-.028,2.664,1.347,2.615,3.2C1318.064,953.582,1318.1,955.161,1318.1,956.739Z"/>
    <path id="Path_102" data-name="Path 102" d="M1396.863,968.938c1.578,0,3.158.054,4.734-.011a7.494,7.494,0,0,0,7.379-7.439c.088-3.154.054-6.312.012-9.468-.025-1.847.638-3.231,2.6-3.213,1.835.016,2.506,1.4,2.506,3.1,0,3.235.114,6.476-.044,9.7a12.519,12.519,0,0,1-12.2,12.369c-3.3.194-6.626.06-9.94.055-1.716,0-3.053-.717-3.048-2.557,0-1.818,1.263-2.571,3.032-2.54,1.657.028,3.314.006,4.972.006Z"/>
    <path id="Path_103" data-name="Path 103" d="M1378.7,953.67h4.91c.423-1.925-.464-4.887,2.728-4.829,3,.053,2.25,2.824,2.544,4.816h4.986c0-.881-.3-1.9.071-2.514.578-.944,1.556-2.108,2.484-2.224.716-.089,2.149,1.179,2.322,2.034a20.141,20.141,0,0,1,.087,5.633c-.132,1.569-1.309,2.285-2.822,2.291q-9.685.035-19.373,0c-2.023-.008-3.011-1.133-3.029-3.128-.013-1.339-.028-2.678.007-4.016.044-1.724.816-2.991,2.659-2.925,1.681.059,2.45,1.226,2.427,2.894C1378.7,952.319,1378.7,952.933,1378.7,953.67Z"/>
    <path id="Path_104" data-name="Path 104" d="M1368.776,913.563v4.71c.968.076,2.021-.146,2.616.277.894.636,1.962,1.694,2.016,2.627.041.723-1.312,2.135-2.121,2.194a68.767,68.767,0,0,1-10.38,0,3.427,3.427,0,0,1-2.239-2.4c-.1-.71,1.127-1.838,2.007-2.4.641-.408,1.679-.193,2.7-.267v-4.861c-2.22,0-4.4.009-6.581,0-1.744-.008-3.249-.486-3.248-2.56s1.445-2.552,3.231-2.543q6.618.033,13.235,0c1.8-.012,3.477.243,3.524,2.482s-1.6,2.614-3.413,2.635C1369.736,913.458,1369.347,913.515,1368.776,913.563Z"/>
    <path id="Path_105" data-name="Path 105" d="M1368.56,938.649v-4.9c-.951-.079-2,.11-2.723-.295-.9-.507-2.18-1.574-2.1-2.268a3.475,3.475,0,0,1,2.14-2.447,12.625,12.625,0,0,1,5.383-.007,3.5,3.5,0,0,1,2.233,2.388c.269,3.287.129,6.608.106,9.915a2.466,2.466,0,0,1-2.68,2.669q-7.325.1-14.651.007c-1.6-.019-2.769-.808-2.723-2.59.046-1.76,1.185-2.464,2.827-2.469C1360.365,938.641,1364.363,938.649,1368.56,938.649Z"/>
    <path id="Path_106" data-name="Path 106" d="M1393.856,938.608c0,.876-.012,1.418,0,1.958.06,2.2-1.107,3.166-3.2,3.174q-4.378.018-8.756,0c-2.093-.007-3.255-.965-3.209-3.168.03-1.419-.011-2.84.016-4.259a2.417,2.417,0,0,1,2.428-2.66c1.582-.07,2.432.95,2.62,2.482.095.764.1,1.539.156,2.406h4.7c.05-.637.091-1.235.147-1.833a6.184,6.184,0,0,1,.154-1.167c.5-1.681,1.836-2.138,3.345-1.957,2.2.264,4.912-1.146,6.39,1.65a2.352,2.352,0,0,1-1.911,3.35A19.423,19.423,0,0,1,1393.856,938.608Z"/>
    <path id="Path_107" data-name="Path 107" d="M1368.636,893.205c-4.153,0-7.924-.021-11.694.009-1.852.015-3.424-.4-3.391-2.611.031-2.067,1.576-2.5,3.3-2.5,4.482,0,8.964-.034,13.446.012,2.46.025,3.269.842,3.3,3.251.043,2.988.01,5.976.008,8.964,0,1.62-.6,2.824-2.393,2.869-1.921.049-2.585-1.174-2.583-2.913C1368.638,898.025,1368.636,895.761,1368.636,893.205Z"/>
    <path id="Path_108" data-name="Path 108" d="M1393.868,918.294c0-.921-.286-1.876.064-2.426.593-.933,1.519-2.108,2.436-2.236a3.066,3.066,0,0,1,2.368,1.915,77.573,77.573,0,0,1,0,10.846,3.1,3.1,0,0,1-2.344,1.986c-.926-.131-1.86-1.316-2.458-2.258-.353-.557-.065-1.521-.065-2.4-2.034-.484-5.119.422-4.967-2.921C1389.029,918.008,1391.6,918.513,1393.868,918.294Z"/>
    <path id="Path_109" data-name="Path 109" d="M1358.562,953.8c-.074,1.263.165,2.315-.244,2.944a4.109,4.109,0,0,1-2.47,1.941,2.949,2.949,0,0,1-2.184-1.9,17.1,17.1,0,0,1-.008-5.87,3.312,3.312,0,0,1,2.349-2.08c3.294-.249,6.618-.152,9.929-.088a2.4,2.4,0,0,1,2.616,2.489c-.006,1.67-1.075,2.553-2.771,2.562C1363.431,953.81,1361.083,953.8,1358.562,953.8Z"/>
    <path id="Path_110" data-name="Path 110" d="M1343.018,918.524c-.732-.043-1.664.169-2.234-.192-.928-.587-2.056-1.432-2.309-2.378-.366-1.377.671-2.385,2.162-2.458a20.5,20.5,0,0,1,5.394.086c.918.206,1.717,1.472,2.3,2.423.312.506.055,1.362.055,2.249.96.071,1.8.083,2.617.2,1.523.225,2.689,1.18,2.306,2.66-.242.936-1.495,1.7-2.44,2.325-.441.29-1.225.061-1.854.062C1343.9,923.51,1343.9,923.509,1343.018,918.524Z"/>
    <path id="Path_111" data-name="Path 111" d="M1378.7,920.678a19.256,19.256,0,0,1,.1-4.694,3.9,3.9,0,0,1,2.278-2.4c1.532-.43,2.576.765,2.63,2.278.121,3.378.107,6.764.019,10.143a2.359,2.359,0,0,1-2.579,2.494,2.4,2.4,0,0,1-2.446-2.63C1378.676,924.139,1378.7,922.408,1378.7,920.678Z"/>
    <path id="Path_112" data-name="Path 112" d="M1335.755,933.549c-1.65,0-3.3.024-4.948-.007a2.47,2.47,0,1,1,.024-4.935c3.3-.022,6.6-.032,9.9.007a2.465,2.465,0,1,1-.024,4.927C1339.054,933.579,1337.4,933.549,1335.755,933.549Z"/>
    <path id="Path_113" data-name="Path 113" d="M1333.241,918.522c0,.788.04,1.579-.011,2.363-.1,1.56-1,2.762-2.5,2.483a3.723,3.723,0,0,1-2.425-2.284,17.017,17.017,0,0,1-.094-5.169,2.336,2.336,0,0,1,2.629-2.422c1.631.086,2.336,1.123,2.394,2.665C1333.267,916.945,1333.243,917.734,1333.241,918.522Z"/>
    <path id="Path_114" data-name="Path 114" d="M1358.468,903.209c-.944,0-2.05.31-2.789-.08-.883-.465-1.995-1.522-2-2.332a3.126,3.126,0,0,1,1.937-2.339,14.346,14.346,0,0,1,5.616-.016,3.456,3.456,0,0,1,2.135,2.445c.076.692-1.2,1.8-2.1,2.252-.754.378-1.849.078-2.792.078Z"/>
    <path id="Path_115" data-name="Path 115" d="M1353.6,928.656c.943,0,2.07-.322,2.783.083a3.821,3.821,0,0,1,1.9,2.445,2.909,2.909,0,0,1-1.831,2.2,17.27,17.27,0,0,1-5.857.015,3.148,3.148,0,0,1-2.015-2.3c-.007-.808,1.11-1.921,2-2.356.825-.4,2-.086,3.024-.086Z"/>
  </g>
</svg>
