<svg xmlns="http://www.w3.org/2000/svg" width="22.857" height="20" viewBox="0 0 22.857 20">
  <path id="bars-solid" d="M.816,63.673H22.041a.816.816,0,0,0,.816-.816V60.816A.816.816,0,0,0,22.041,60H.816A.816.816,0,0,0,0,60.816v2.041A.816.816,0,0,0,.816,63.673Zm0,8.163H22.041a.816.816,0,0,0,.816-.816V68.98a.816.816,0,0,0-.816-.816H.816A.816.816,0,0,0,0,68.98V71.02A.816.816,0,0,0,.816,71.837ZM.816,80H22.041a.816.816,0,0,0,.816-.816V77.143a.816.816,0,0,0-.816-.816H.816A.816.816,0,0,0,0,77.143v2.041A.816.816,0,0,0,.816,80Z" transform="translate(0 -60)" fill="#555"/>
</svg>
