<svg xmlns="http://www.w3.org/2000/svg" width="27.893" height="30.094" viewBox="0 0 27.893 30.094">
  <path id="square-facebook-brands" d="M24.9,32H2.988A3.113,3.113,0,0,0,0,35.224V58.87a3.113,3.113,0,0,0,2.988,3.224h8.545V51.863H7.611V47.047h3.922v-3.67c0-4.175,2.3-6.481,5.832-6.481a22.078,22.078,0,0,1,3.457.325v4.1H18.875a2.326,2.326,0,0,0-2.517,2.6v3.127h4.282l-.685,4.816h-3.6V62.094H24.9a3.113,3.113,0,0,0,2.988-3.224V35.224A3.113,3.113,0,0,0,24.9,32Z" transform="translate(0 -32)" fill="#3b579d"/>
</svg>
