<svg id="google_2_" data-name="google (2)" xmlns="http://www.w3.org/2000/svg" width="29.979" height="29.909" viewBox="0 0 29.979 29.909">
  <path id="Path_1275" data-name="Path 1275" d="M8.9,15.882a10.3,10.3,0,0,0,.187,1.682l1.776-1.682L9.18,14.2A5.293,5.293,0,0,0,8.9,15.882Z" transform="translate(-0.581 -0.928)" fill="none"/>
  <path id="Path_1276" data-name="Path 1276" d="M15.118,22.76A6.534,6.534,0,0,1,8.762,17.9L2.5,24.162a14.974,14.974,0,0,0,12.618,6.917,14.647,14.647,0,0,0,7.945-2.337L16.8,22.48A5.292,5.292,0,0,1,15.118,22.76Z" transform="translate(-0.163 -1.17)" fill="#34a853"/>
  <path id="Path_1277" data-name="Path 1277" d="M30.889,13.748A.91.91,0,0,0,29.955,13H15.935a.883.883,0,0,0-.935.935v4.673a.883.883,0,0,0,.935.935h4.954a6.726,6.726,0,0,1-3.271,2.617l6.262,6.262A14.842,14.842,0,0,0,30.889,15.8V15.15A3.506,3.506,0,0,0,30.889,13.748Z" transform="translate(-0.98 -0.849)" fill="#4285f4"/>
  <path id="Path_1278" data-name="Path 1278" d="M8.319,15.445a10.3,10.3,0,0,1,.187-1.682L2.337,7.5a14.674,14.674,0,0,0,0,15.889L8.6,17.127A5.293,5.293,0,0,1,8.319,15.445Z" transform="translate(0 -0.49)" fill="#fbbc05"/>
  <path id="Path_1279" data-name="Path 1279" d="M26.8,5.608a16.071,16.071,0,0,0-3.739-3.365A15.406,15.406,0,0,0,15.118,0,14.842,14.842,0,0,0,2.5,7.01l6.262,6.262a6.617,6.617,0,0,1,6.356-4.86,5.293,5.293,0,0,1,1.682.28,8.143,8.143,0,0,1,2.43,1.4.838.838,0,0,0,1.028.093L26.521,7.1a.7.7,0,0,0,.467-.654A.953.953,0,0,0,26.8,5.608Z" transform="translate(-0.163)" fill="#ea4335"/>
</svg>
