<svg id="google_2_" data-name="google (2)" xmlns="http://www.w3.org/2000/svg" width="41.743" height="41.646" viewBox="0 0 41.743 41.646">
  <path id="Path_1275" data-name="Path 1275" d="M8.9,16.543a14.34,14.34,0,0,0,.26,2.343l2.473-2.343L9.29,14.2A7.369,7.369,0,0,0,8.9,16.543Z" transform="translate(2.683 4.28)" fill="none"/>
  <path id="Path_1276" data-name="Path 1276" d="M20.069,24.667A9.1,9.1,0,0,1,11.22,17.9L2.5,26.62A20.85,20.85,0,0,0,20.069,36.25,20.4,20.4,0,0,0,31.131,33l-8.72-8.72A7.369,7.369,0,0,1,20.069,24.667Z" transform="translate(0.754 5.396)" fill="#34a853"/>
  <path id="Path_1277" data-name="Path 1277" d="M37.124,14.041A1.267,1.267,0,0,0,35.823,13H16.3A1.23,1.23,0,0,0,15,14.3v6.507a1.23,1.23,0,0,0,1.3,1.3h6.9a9.366,9.366,0,0,1-4.555,3.644l8.72,8.72A20.666,20.666,0,0,0,37.124,16.9v-.911A4.881,4.881,0,0,0,37.124,14.041Z" transform="translate(4.521 3.919)" fill="#4285f4"/>
  <path id="Path_1278" data-name="Path 1278" d="M11.583,18.562a14.34,14.34,0,0,1,.26-2.343L3.254,7.5a20.432,20.432,0,0,0,0,22.124l8.72-8.72A7.369,7.369,0,0,1,11.583,18.562Z" transform="translate(0 2.261)" fill="#fbbc05"/>
  <path id="Path_1279" data-name="Path 1279" d="M36.337,7.809a22.377,22.377,0,0,0-5.206-4.685A21.452,21.452,0,0,0,20.069,0,20.666,20.666,0,0,0,2.5,9.761l8.72,8.72a9.213,9.213,0,0,1,8.85-6.767,7.369,7.369,0,0,1,2.343.39A11.338,11.338,0,0,1,25.8,14.055a1.166,1.166,0,0,0,1.432.13l8.72-4.295A.979.979,0,0,0,36.6,8.98,1.327,1.327,0,0,0,36.337,7.809Z" transform="translate(0.754)" fill="#ea4335"/>
</svg>
