<svg id="ios-link" xmlns="http://www.w3.org/2000/svg" width="20" height="20" viewBox="0 0 20 20">
  <path id="Path_1298" data-name="Path 1298" d="M14.525,20.516l-.057,0a.8.8,0,0,0-.461.216l-3.1,3.106a3.5,3.5,0,0,1-4.95-4.952l3.3-3.3a3.5,3.5,0,0,1,1.26-.808,3.33,3.33,0,0,1,.721-.178,3.419,3.419,0,0,1,.49-.034c.067,0,.135,0,.221.01a3.488,3.488,0,0,1,2.249,1.01,3.444,3.444,0,0,1,.822,1.313.756.756,0,0,0,.927.485s.01,0,.014,0,.01,0,.01,0a.75.75,0,0,0,.5-.918,4.355,4.355,0,0,0-1.182-1.971,5.057,5.057,0,0,0-2.768-1.409c-.092-.014-.182-.029-.274-.038a4.973,4.973,0,0,0-.533-.029c-.125,0-.25,0-.37.014a4.791,4.791,0,0,0-.778.12c-.053.01-.1.024-.154.038a5.019,5.019,0,0,0-.937.351,4.959,4.959,0,0,0-1.331.957l-3.3,3.3A5.058,5.058,0,0,0,12,24.948l3.138-3.139a.761.761,0,0,0-.61-1.293Z" transform="translate(-3.375 -6.424)" fill="#10325b"/>
  <path id="Path_1299" data-name="Path 1299" d="M25.085,4.851a5.062,5.062,0,0,0-7.146,0L14.878,7.914a.775.775,0,0,0,1.1,1.1L19.04,5.953A3.5,3.5,0,0,1,23.99,10.9l-3.3,3.3a3.5,3.5,0,0,1-1.26.808,3.33,3.33,0,0,1-.721.178,3.419,3.419,0,0,1-.49.034c-.067,0-.139,0-.221-.01a3.454,3.454,0,0,1-3.037-2.236.768.768,0,0,0-.918-.471.777.777,0,0,0-.543.985,4.4,4.4,0,0,0,1.139,1.8l.01.01a5.056,5.056,0,0,0,3.042,1.447,4.974,4.974,0,0,0,.533.029c.125,0,.25,0,.375-.014a5.517,5.517,0,0,0,.927-.154,5.018,5.018,0,0,0,.937-.351A4.959,4.959,0,0,0,21.8,15.3l3.3-3.3a5.061,5.061,0,0,0-.01-7.154Z" transform="translate(-6.569 -3.375)" fill="#10325b"/>
</svg>
