<svg xmlns="http://www.w3.org/2000/svg" width="38.766" height="41.172" viewBox="0 0 38.766 41.172">
  <path id="line-brands_2_" data-name="line-brands (2)" d="M23.545,47.825v6.534a.282.282,0,0,1-.277.294h-.986a.281.281,0,0,1-.225-.119L19.236,50.49v3.878a.282.282,0,0,1-.277.294h-.986a.282.282,0,0,1-.277-.294V47.834a.282.282,0,0,1,.277-.294h.978a.257.257,0,0,1,.225.129L22,51.713V47.834a.282.282,0,0,1,.277-.294h.986A.281.281,0,0,1,23.545,47.825Zm-7.1-.294h-.986a.282.282,0,0,0-.277.294v6.534a.282.282,0,0,0,.277.294h.986a.282.282,0,0,0,.277-.294V47.825A.288.288,0,0,0,16.45,47.531Zm-2.38,5.477H11.379V47.825a.282.282,0,0,0-.277-.294h-.986a.282.282,0,0,0-.277.294v6.534a.279.279,0,0,0,.078.2.283.283,0,0,0,.19.083h3.955a.282.282,0,0,0,.277-.294V53.3a.287.287,0,0,0-.268-.294Zm14.667-5.477H24.783a.288.288,0,0,0-.277.294v6.534a.288.288,0,0,0,.277.294h3.955a.282.282,0,0,0,.277-.294V53.312a.282.282,0,0,0-.277-.294H26.046v-1.1h2.691a.282.282,0,0,0,.277-.294V50.564a.282.282,0,0,0-.277-.294H26.046v-1.1h2.691a.282.282,0,0,0,.277-.294V47.825A.3.3,0,0,0,28.737,47.531Zm10.029-8.023V65.728a7.273,7.273,0,0,1-7.07,7.444H7.009A7.287,7.287,0,0,1,0,65.663V39.444A7.278,7.278,0,0,1,7.069,32H31.757A7.281,7.281,0,0,1,38.766,39.508Zm-5.33,11.267c0-6.709-6.334-12.168-14.113-12.168S5.209,44.066,5.209,50.775c0,6.01,5.019,11.047,11.8,12,1.653.377,1.462,1.02,1.09,3.382-.061.377-.286,1.48,1.22.809s8.125-5.082,11.093-8.7A11.2,11.2,0,0,0,33.436,50.775Z" transform="translate(0 -32)" fill="#00b900"/>
</svg>
