<svg xmlns="http://www.w3.org/2000/svg" xmlns:xlink="http://www.w3.org/1999/xlink" width="168" height="168" viewBox="0 0 168 168">
  <defs>
    <filter id="Ellipse_1" x="0" y="0" width="168" height="168" filterUnits="userSpaceOnUse">
      <feOffset dy="3" input="SourceAlpha"/>
      <feGaussianBlur stdDeviation="3" result="blur"/>
      <feFlood flood-opacity="0.161"/>
      <feComposite operator="in" in2="blur"/>
      <feComposite in="SourceGraphic"/>
    </filter>
  </defs>
  <g id="Component_10_1" data-name="Component 10 – 1" transform="translate(9 6)">
    <g transform="matrix(1, 0, 0, 1, -9, -6)" filter="url(#Ellipse_1)">
      <circle id="Ellipse_1-2" data-name="Ellipse 1" cx="75" cy="75" r="75" transform="translate(9 6)" fill="#fff"/>
    </g>
    <g id="Group_894" data-name="Group 894" transform="translate(0.095 0.799)">
      <path id="circle-user-solid" d="M69.084,0a69.083,69.083,0,1,0,69.084,69.083A69.078,69.078,0,0,0,69.084,0Zm0,34.541a19.43,19.43,0,1,1-19.43,19.43A19.43,19.43,0,0,1,69.084,34.541Zm0,86.354a51.675,51.675,0,0,1-36.62-15.19A30.035,30.035,0,0,1,60.449,86.354H77.72A30.006,30.006,0,0,1,105.7,105.7,51.656,51.656,0,0,1,69.084,120.9Z" transform="translate(5.905 5.201)" fill="#10325b" stroke="#fff" stroke-width="1"/>
    </g>
  </g>
</svg>
