<svg xmlns="http://www.w3.org/2000/svg" width="107.765" height="50.034" viewBox="0 0 107.765 50.034">
  <g id="Logos" transform="translate(-358 -22)">
    <g id="Group_7" data-name="Group 7" transform="translate(-96 -448)">
      <g id="Group_6" data-name="Group 6">
        <path id="Path_1" data-name="Path 1" d="M29.532,16.027H28.481V14.977a2.643,2.643,0,0,0-2.268-2.618,3.1,3.1,0,0,0,1.134-1.434,3.153,3.153,0,0,0-.05-2.4,13.963,13.963,0,0,0-4-5.27A13.942,13.942,0,0,0,14.271,0a13.129,13.129,0,0,0-1.4.067A14.715,14.715,0,0,0,9.4.851H9.385l-.2.083A14.278,14.278,0,0,0,.062,15.644a14.511,14.511,0,0,0,.517,2.668v.017l.05.167a14.167,14.167,0,0,0,4.553,6.771l.367.3a3.082,3.082,0,0,0-2.3,1.134A14.517,14.517,0,0,0,.162,33.589h0l-.017.167v.017a14.359,14.359,0,0,0-.067,3.386A14.24,14.24,0,0,0,14.255,50.034h0a14.222,14.222,0,0,0,7.038-1.851l.267-.15.017-.017a13.845,13.845,0,0,0,3.7-3.185A14.238,14.238,0,0,0,27.33,30.054l-.033-.1-.017-.017a14.035,14.035,0,0,0-3.953-5.187l-9.19-7.572a3.087,3.087,0,0,0-1.985-.717A3.155,3.155,0,0,0,9.735,17.6a3.1,3.1,0,0,0-.7,2.285,4.888,4.888,0,0,0,.083.484,7.954,7.954,0,0,1-2.185-2.9,7.849,7.849,0,0,1-.65-2.452A7.993,7.993,0,0,1,8.067,9.173a7.734,7.734,0,0,1,2.1-1.8,7.867,7.867,0,0,1,3.3-1.067,6.427,6.427,0,0,1,.8-.033,7.938,7.938,0,0,1,5.07,1.818,8.079,8.079,0,0,1,1.284,1.334h0a7.607,7.607,0,0,1,.951,1.634,3.107,3.107,0,0,0,2.618,1.851,2.64,2.64,0,0,0-1.017,2.085v1.051H22.127a2.652,2.652,0,1,0,0,5.3h1.051V22.4a2.652,2.652,0,1,0,5.3,0V21.348h1.051a2.66,2.66,0,0,0,0-5.32ZM11.57,43.312h0a8.237,8.237,0,0,1-2.385-1.351A7.991,7.991,0,0,1,8.084,30.7a3.1,3.1,0,0,0,.7-2.285.837.837,0,0,0-.033-.2l1.518,1.251h0l4.119,3.386a3.087,3.087,0,0,0,1.985.717h0a3.155,3.155,0,0,0,2.418-1.134,3.1,3.1,0,0,0,.7-2.285,4.889,4.889,0,0,0-.083-.484,8.018,8.018,0,0,1,2.852,5.854A8,8,0,0,1,14.255,43.8,8.586,8.586,0,0,1,11.57,43.312Z" transform="translate(454.006 470)" fill="#fff"/>
        <g id="Group_5" data-name="Group 5" transform="translate(455.224 471.223)">
          <g id="Group_1" data-name="Group 1" transform="translate(19.491 12.32)">
            <path id="Path_2" data-name="Path 2" d="M133.023,106.269h-7.388a1.434,1.434,0,1,1,0-2.869h7.388a1.434,1.434,0,1,1,0,2.869Z" transform="translate(-124.2 -99.698)" fill="#12335e"/>
            <path id="Path_3" data-name="Path 3" d="M147.734,91.474a1.434,1.434,0,0,1-1.434-1.434v-7.4a1.434,1.434,0,1,1,2.869,0v7.4A1.434,1.434,0,0,1,147.734,91.474Z" transform="translate(-142.614 -81.2)" fill="#12335e"/>
          </g>
          <g id="Group_2" data-name="Group 2" transform="translate(0.009 16.49)">
            <path id="Path_4" data-name="Path 4" d="M77.367,119.048a12.972,12.972,0,0,0-3.652-4.837l-9.19-7.572a1.908,1.908,0,1,0-2.418,2.952l1.2.984a74.487,74.487,0,0,0,7.555,3.953C73.9,115.929,76.332,117.43,77.367,119.048Z" transform="translate(-52.397 -106.207)" fill="#f0bc1d"/>
            <path id="Path_5" data-name="Path 5" d="M17.99,178.368a9.624,9.624,0,0,1-2.752-1.551,9.272,9.272,0,0,1-3.319-6.238,9.173,9.173,0,0,1,2.051-6.755,1.908,1.908,0,0,0-2.952-2.418A12.9,12.9,0,0,0,8.2,167.694,12.346,12.346,0,0,0,17.99,178.368Z" transform="translate(-8.064 -151.617)" fill="#30b1d2"/>
            <path id="Path_6" data-name="Path 6" d="M29.636,204.184a9.122,9.122,0,0,1-2.085,6.171,9.22,9.22,0,0,1-10.24,2.819A12.281,12.281,0,0,1,7.538,202.5a12.463,12.463,0,0,0-.083,3.252,13.024,13.024,0,0,0,12.959,11.775,13.083,13.083,0,0,0,6.438-1.7A19.208,19.208,0,0,0,29.636,204.184Z" transform="translate(-7.386 -186.44)" fill="#3e7b43"/>
            <path id="Path_7" data-name="Path 7" d="M86.776,140.872c-1.051-1.6-3.469-3.1-6.521-4.52A72.524,72.524,0,0,1,72.7,132.4l8.005,6.588a9.208,9.208,0,0,1,3.352,6.8,19.228,19.228,0,0,1-2.769,11.658,13,13,0,0,0,5.487-16.578Z" transform="translate(-61.807 -128.032)" fill="#b88730"/>
          </g>
          <g id="Group_4" data-name="Group 4" transform="translate(0 0)">
            <path id="Path_8" data-name="Path 8" d="M10.8,49.641a12.854,12.854,0,0,0,4.169,6.187L20.037,60A48.868,48.868,0,0,1,14.8,49.475a9,9,0,0,1-.734-2.835,9.173,9.173,0,0,1,2.051-6.755A9.557,9.557,0,0,1,18.536,37.8C11.2,40.085,10.781,47.657,10.8,49.641Z" transform="translate(-10.219 -32.719)" fill="#e73f2a"/>
            <path id="Path_9" data-name="Path 9" d="M44.34,121.726a1.85,1.85,0,0,0,1.217.434,1.909,1.909,0,0,0,1.217-3.386l-9.19-7.572A9.342,9.342,0,0,1,35,107.8a47.333,47.333,0,0,0,5.237,10.524Z" transform="translate(-30.386 -91.044)" fill="#eb672c"/>
            <path id="Path_10" data-name="Path 10" d="M15.732,12.395A13.023,13.023,0,0,0,7.393,25.854a12.58,12.58,0,0,0,.534,2.618c-.017-1.985.384-9.54,7.755-11.825a9.259,9.259,0,0,1,10.557.817A9.927,9.927,0,0,1,27.724,19,13.3,13.3,0,0,0,15.732,12.395Z" transform="translate(-7.332 -11.549)" fill="#b91c2d"/>
            <g id="Group_3" data-name="Group 3" transform="translate(8.4)">
              <path id="Path_11" data-name="Path 11" d="M74.278,15.132A13.066,13.066,0,0,0,61.069,7.393a13.4,13.4,0,0,0-3.369.784,13.266,13.266,0,0,1,11.975,6.6,8.85,8.85,0,0,1,1.1,1.885,1.912,1.912,0,1,0,3.5-1.534Z" transform="translate(-57.7 -7.332)" fill="#991d41"/>
            </g>
          </g>
        </g>
      </g>
    </g>
    <path id="Path_1360" data-name="Path 1360" d="M2.583-5.188Q1.5-5.188,1.5-6.02,1.5-6.9,2.583-6.9H6.446v-5.84H3.459q-1.1,0-1.1-.854,0-.876,1.1-.876H6.446V-16.98q0-1.213.966-1.213t.966,1.213v2.516H14.51V-17q0-1.213.966-1.213T16.441-17v2.538h3.1q1.078,0,1.078.876,0,.854-1.078.854h-3.1V-6.9h3.976a1.386,1.386,0,0,1,.831.2.788.788,0,0,1,.27.674q0,.831-1.1.831Zm5.795-7.547V-6.9H14.51v-5.84ZM7.794-3.841q.9,0,.9.854,0,.314-.685,1.033A17.661,17.661,0,0,1,6-.225,18.878,18.878,0,0,1,3.706,1.3a3.573,3.573,0,0,1-1.5.539A.683.683,0,0,1,1.64,1.55,1.071,1.071,0,0,1,1.393.876.7.7,0,0,1,1.707.371,8.758,8.758,0,0,1,2.7-.292a21.116,21.116,0,0,0,3.886-2.83,3.152,3.152,0,0,1,.685-.539A1.181,1.181,0,0,1,7.794-3.841ZM20.484-.225q1.123.606,1.123,1.1a.968.968,0,0,1-.236.7.872.872,0,0,1-.663.247q-.988,0-3.773-2.156a22.039,22.039,0,0,1-2-1.7q-.741-.73-.741-.977a.769.769,0,0,1,.225-.618,1.059,1.059,0,0,1,.7-.191,2.767,2.767,0,0,1,1.19.7A30.53,30.53,0,0,0,20.484-.225Zm4.941-14.645q-.9,0-.9-.786t.9-.786h7.951v-.876q0-.966,1.056-.966t1.056.966v.876H43.6q.9,0,.9.786t-.9.786Zm14.847.854a1.9,1.9,0,0,1,1.314.382A1.511,1.511,0,0,1,42-12.466v1.572Q42-9.3,40.272-9.366H28.615a1.986,1.986,0,0,1-1.325-.371,1.453,1.453,0,0,1-.427-1.157v-1.572q0-1.617,1.752-1.55Zm-.18,2.044q0-.517-.494-.517H29.267q-.494,0-.494.517v.584a.437.437,0,0,0,.494.494H39.6a.449.449,0,0,0,.494-.494Zm3.661,8.086q.943,0,.943.831,0,.786-.943.786H35.533V.157a1.989,1.989,0,0,1-.483,1.494,2.21,2.21,0,0,1-1.561.46H31.67q-1.123,0-1.123-.9t1.123-.9h1.19q.7,0,.741-.741V-2.269H25.246q-.921,0-.921-.809a.769.769,0,0,1,.225-.618,1.059,1.059,0,0,1,.7-.191H33.6a1.954,1.954,0,0,1,.292-1.2,2.358,2.358,0,0,1,1.146-.64l1.55-.472q1.595-.449,2.156-.674H27.065q-.876,0-.876-.786,0-.764.876-.764H40.34q1.3,0,1.572.854a.9.9,0,0,1,.067.359,1.107,1.107,0,0,1-.292.741,2.174,2.174,0,0,1-.854.562q-1.595.584-3.257,1.056a15.835,15.835,0,0,0-1.583.505q-.46.191-.46.46ZM66.979-1.842q.786,0,.786.741A4.376,4.376,0,0,1,67.405.7q-.562,1.325-1.37,1.325-1.729,0-3.594-2.7-3.459,2.291-4.627,2.291-.809,0-.809-.854,0-.584,1.078-.921a10.8,10.8,0,0,0,1.842-.809,18.025,18.025,0,0,0,1.662-1.056,12.917,12.917,0,0,1-1.3-3.729H56.871V-4.9q0,.539-.022.809a.66.66,0,0,1,.517-.27,1.517,1.517,0,0,1,.651.191,3.356,3.356,0,0,1,.786.573q.854.831.854,1.168a.791.791,0,0,1-.2.584.791.791,0,0,1-.584.2q-.629,0-2.066-1.752a7.406,7.406,0,0,1-1.19,3.257q-1.011,1.55-1.842,1.55A.735.735,0,0,1,52.94.584q0-.337.786-1.123a5.887,5.887,0,0,0,1.64-4.425l-.022-.786H54.76q-.831,0-.854-.764-.09.427-.629.427-.382,0-.719-.9l-.584-1.28-.09-.18v9.86a.715.715,0,0,1-.809.809.7.7,0,0,1-.786-.809V-8.4a23.912,23.912,0,0,1-1.179,3.987Q48.538-3.1,47.977-3.1a.752.752,0,0,1-.573-.2.753.753,0,0,1-.191-.539,3.413,3.413,0,0,1,.517-1.482,23.37,23.37,0,0,0,2.381-6.6H48.269q-.921,0-.921-.876a.8.8,0,0,1,.921-.9H50.29v-3.841a.7.7,0,0,1,.786-.786.7.7,0,0,1,.809.786V-13.7h1.3a.764.764,0,0,1,.854.876q0,.9-.854.9h-1.3v2.763a.608.608,0,0,1,.449-.157q.4,0,1.033,1.19a3.863,3.863,0,0,1,.584,1.393q.135-.517.809-.517h5.278a79.335,79.335,0,0,1-.427-8.782v-.584l-.022-.741a1.1,1.1,0,0,1,.191-.719.769.769,0,0,1,.618-.225q.831,0,.831.921l-.022,1.011-.022.988v.517l.045,1.482.067,1.774.09,1.8.022.427a.605.605,0,0,1,.326-.494,1.943,1.943,0,0,1,.82-.225l.943-1.8a6.957,6.957,0,0,0-.775-.7l-.6-.472-.427-.337a.9.9,0,0,1-.4-.719.785.785,0,0,1,.191-.562.721.721,0,0,1,.55-.2,1.037,1.037,0,0,1,.517.2l.629-1.707q.359-1.393,1.011-1.393.876,0,.876.741a10.5,10.5,0,0,1-1.46,3.189l.606.517q1.033-2.044,1.5-2.044.831,0,.831.7a13.69,13.69,0,0,1-1.37,2.718l-1.146,1.707,1.685-.225-.157-.382q-.022-.045-.09-.225a.915.915,0,0,1-.067-.314q0-.629.719-.629.7,0,1.438,2.426l.112.359a.684.684,0,0,1-.2.539.816.816,0,0,1-.562.18q-.494,0-.831-.764l-1.415.359-2,.337-.517.067a.564.564,0,0,1-.483-.124.741.741,0,0,1-.236-.46q.067.966.2,1.864h2.7l-.045-.067a2.212,2.212,0,0,1-.494-.988.407.407,0,0,1,.168-.348.764.764,0,0,1,.46-.124,1.04,1.04,0,0,1,.786.494,1.322,1.322,0,0,1,.359.741.408.408,0,0,1-.135.292h1.482q.854,0,.854.741,0,.764-.854.764H61.925a13.171,13.171,0,0,0,.921,2.718A12.052,12.052,0,0,0,64.62-4.762a1.112,1.112,0,0,1,.831-.494.7.7,0,0,1,.809.786,1.268,1.268,0,0,1-.517.831l-.314.359-1.8,1.662Q64.89.18,65.7.18q.18,0,.326-.258a2.166,2.166,0,0,0,.213-.752Q66.372-1.842,66.979-1.842ZM54.243-13.3q-.629-.449-.629-.9a.8.8,0,0,1,.2-.573.766.766,0,0,1,.584-.213,1.274,1.274,0,0,1,.539.2l.831-2.2q.314-.831.854-.831a.9.9,0,0,1,.618.191.7.7,0,0,1,.213.55,2.892,2.892,0,0,1-.326,1.022q-.326.708-1.067,2.055l.809.584.27-.562q.606-1.258,1.123-1.258a.819.819,0,0,1,.584.191.721.721,0,0,1,.2.55q0,.764-2.583,4.582l1.348-.225-.112-.225a1.108,1.108,0,0,1-.135-.539q0-.562.651-.562a.645.645,0,0,1,.46.27,4.2,4.2,0,0,1,.528.854A5.512,5.512,0,0,1,59.858-8.6q0,.651-.719.651-.517,0-.9-.943l-3.594.741-.292.022a.587.587,0,0,1-.528-.213.951.951,0,0,1-.191-.618q0-.674,1.19-.786H54.8l1.325-2.224Z" transform="translate(398 50)" fill="#12335e"/>
    <path id="Path_1359" data-name="Path 1359" d="M3.1.107A5.792,5.792,0,0,1,.771-.361a.463.463,0,0,1-.2-.166A.417.417,0,0,1,.488-.771a.414.414,0,0,1,.117-.3A.389.389,0,0,1,.9-1.191a.411.411,0,0,1,.186.039,4.716,4.716,0,0,0,1.924.4q1.7,0,1.7-1.113a.6.6,0,0,0-.215-.479A1.4,1.4,0,0,0,4-2.637q-.293-.107-.967-.283a10.124,10.124,0,0,1-1.279-.4,1.937,1.937,0,0,1-.9-.63,1.562,1.562,0,0,1-.3-.962A1.9,1.9,0,0,1,.85-5.937a1.915,1.915,0,0,1,.894-.732A3.4,3.4,0,0,1,3.1-6.924,5.556,5.556,0,0,1,5.039-6.6a.4.4,0,0,1,.283.4.425.425,0,0,1-.117.288.366.366,0,0,1-.283.132.392.392,0,0,1-.156-.039,4.773,4.773,0,0,0-1.572-.264,2.363,2.363,0,0,0-1.255.293.909.909,0,0,0-.474.811.7.7,0,0,0,.234.557,1.635,1.635,0,0,0,.537.332,7.153,7.153,0,0,0,.967.273,9.012,9.012,0,0,1,1.25.371,1.861,1.861,0,0,1,.835.605,1.641,1.641,0,0,1,.317,1.035,1.69,1.69,0,0,1-.312.986A2.037,2.037,0,0,1,4.4-.132,3.349,3.349,0,0,1,3.1.107ZM7.4.01a.433.433,0,0,1-.317-.132.433.433,0,0,1-.132-.317V-6.367a.449.449,0,0,1,.132-.322A.425.425,0,0,1,7.4-6.826H9.365a3.587,3.587,0,0,1,1.9.488,3.281,3.281,0,0,1,1.152,1.265,3.581,3.581,0,0,1,.4,1.665,3.582,3.582,0,0,1-.391,1.641,3.058,3.058,0,0,1-1.191,1.3A3.553,3.553,0,0,1,9.365.01ZM9.258-.84a2.878,2.878,0,0,0,1.406-.332,2.277,2.277,0,0,0,.933-.9,2.663,2.663,0,0,0,.327-1.338,2.686,2.686,0,0,0-.332-1.348,2.26,2.26,0,0,0-.937-.9,2.964,2.964,0,0,0-1.4-.317H7.979a.1.1,0,0,0-.117.117v4.9a.1.1,0,0,0,.117.117Zm8.057.947a3.487,3.487,0,0,1-1.787-.449,3.1,3.1,0,0,1-1.221-1.245,3.752,3.752,0,0,1-.43-1.812,3.688,3.688,0,0,1,.449-1.836,3.209,3.209,0,0,1,1.23-1.245,3.435,3.435,0,0,1,1.729-.444,4.4,4.4,0,0,1,1.294.176,4.884,4.884,0,0,1,1.138.527.322.322,0,0,1,.146.142.436.436,0,0,1,.059.22.4.4,0,0,1-.117.288.4.4,0,0,1-.3.122A.546.546,0,0,1,19.3-5.5a4.259,4.259,0,0,0-.928-.41,3.44,3.44,0,0,0-.986-.137,2.951,2.951,0,0,0-1.338.313,2.229,2.229,0,0,0-.933.928A2.913,2.913,0,0,0,14.785-3.4a2.843,2.843,0,0,0,.322,1.357,2.275,2.275,0,0,0,.928.952,2.824,2.824,0,0,0,1.4.337,3.542,3.542,0,0,0,1.7-.43V-2.812a.1.1,0,0,0-.117-.117H17.529a.394.394,0,0,1-.288-.122.394.394,0,0,1-.122-.288.394.394,0,0,1,.122-.288.394.394,0,0,1,.288-.122h1.924a.46.46,0,0,1,.337.142.46.46,0,0,1,.142.337v2.217a.692.692,0,0,1-.1.366.643.643,0,0,1-.283.249A5.03,5.03,0,0,1,17.314.107Zm9.453,0a5.792,5.792,0,0,1-2.324-.469.463.463,0,0,1-.2-.166.417.417,0,0,1-.083-.244.414.414,0,0,1,.117-.3.389.389,0,0,1,.293-.122.411.411,0,0,1,.186.039,4.716,4.716,0,0,0,1.924.4q1.7,0,1.7-1.113a.6.6,0,0,0-.215-.479,1.4,1.4,0,0,0-.488-.293q-.293-.107-.967-.283a10.124,10.124,0,0,1-1.279-.4,1.937,1.937,0,0,1-.9-.63,1.562,1.562,0,0,1-.3-.962,1.9,1.9,0,0,1,.293-1.025,1.915,1.915,0,0,1,.894-.732,3.4,3.4,0,0,1,1.353-.254,5.556,5.556,0,0,1,1.943.322.4.4,0,0,1,.283.4.425.425,0,0,1-.117.288.366.366,0,0,1-.283.132.392.392,0,0,1-.156-.039,4.773,4.773,0,0,0-1.572-.264,2.363,2.363,0,0,0-1.255.293.909.909,0,0,0-.474.811.7.7,0,0,0,.234.557,1.635,1.635,0,0,0,.537.332,7.153,7.153,0,0,0,.967.273,9.012,9.012,0,0,1,1.25.371,1.861,1.861,0,0,1,.835.605,1.641,1.641,0,0,1,.317,1.035,1.69,1.69,0,0,1-.312.986,2.037,2.037,0,0,1-.894.688A3.349,3.349,0,0,1,26.768.107ZM31.074.059a.433.433,0,0,1-.317-.132.433.433,0,0,1-.132-.317V-6.416a.449.449,0,0,1,.132-.322.425.425,0,0,1,.317-.137.441.441,0,0,1,.322.137.441.441,0,0,1,.137.322v2.588h3.682V-6.416a.449.449,0,0,1,.132-.322.425.425,0,0,1,.317-.137.441.441,0,0,1,.322.137.441.441,0,0,1,.137.322V-.391a.425.425,0,0,1-.137.317.449.449,0,0,1-.322.132.433.433,0,0,1-.317-.132.433.433,0,0,1-.132-.317V-2.979H31.533V-.391a.425.425,0,0,1-.137.317A.449.449,0,0,1,31.074.059Zm6.914,0a.428.428,0,0,1-.322-.132.441.441,0,0,1-.127-.317.6.6,0,0,1,.049-.2l2.49-5.879a.743.743,0,0,1,.234-.3.562.562,0,0,1,.342-.107h.1a.562.562,0,0,1,.342.107.743.743,0,0,1,.234.3l2.49,5.879a.6.6,0,0,1,.049.2.441.441,0,0,1-.127.317.428.428,0,0,1-.322.132.463.463,0,0,1-.259-.073.458.458,0,0,1-.171-.21l-.635-1.514h-3.3L38.418-.225a.458.458,0,0,1-.171.21A.463.463,0,0,1,37.988.059Zm2.793-5.586Q40.752-5.6,40.7-5.6t-.078.068l-1.23,2.959h2.617Zm8.633,2.461a1.4,1.4,0,0,1,.918.815A3.4,3.4,0,0,1,50.615-.84v.449a.433.433,0,0,1-.132.317.433.433,0,0,1-.317.132.459.459,0,0,1-.332-.122.433.433,0,0,1-.127-.327V-.684a4.432,4.432,0,0,0-.088-.908,1.337,1.337,0,0,0-.444-.757,1.445,1.445,0,0,0-.972-.3H46.191V-.391a.425.425,0,0,1-.137.317.449.449,0,0,1-.322.132.433.433,0,0,1-.317-.132.433.433,0,0,1-.132-.317V-6.367a.449.449,0,0,1,.132-.322.425.425,0,0,1,.317-.137h2.275a3.137,3.137,0,0,1,1.978.542,1.751,1.751,0,0,1,.688,1.45,1.86,1.86,0,0,1-.327,1.074A1.834,1.834,0,0,1,49.414-3.066Zm-1.465-.439a2.3,2.3,0,0,0,1.333-.337,1.066,1.066,0,0,0,.483-.923,1.021,1.021,0,0,0-.435-.9,2.61,2.61,0,0,0-1.431-.3H46.309a.1.1,0,0,0-.117.117v2.344ZM52.686.01a.433.433,0,0,1-.317-.132.433.433,0,0,1-.132-.317V-6.367a.449.449,0,0,1,.132-.322.425.425,0,0,1,.317-.137H56.6a.413.413,0,0,1,.3.127.413.413,0,0,1,.127.3.4.4,0,0,1-.127.3.422.422,0,0,1-.3.122h-3.34a.1.1,0,0,0-.117.117v2.021H56.25a.413.413,0,0,1,.3.127.413.413,0,0,1,.127.3.4.4,0,0,1-.127.3.422.422,0,0,1-.3.122H53.145V-.957a.1.1,0,0,0,.117.117H56.6a.413.413,0,0,1,.3.127.413.413,0,0,1,.127.3.4.4,0,0,1-.127.3.422.422,0,0,1-.3.122Zm7.588-1.016A.375.375,0,0,1,60-1.123a.375.375,0,0,1-.117-.273V-2.988H58.291a.366.366,0,0,1-.269-.112.366.366,0,0,1-.112-.269.378.378,0,0,1,.112-.278.366.366,0,0,1,.269-.112h1.592V-5.352A.37.37,0,0,1,60-5.63a.383.383,0,0,1,.273-.112.378.378,0,0,1,.278.112.378.378,0,0,1,.112.278V-3.76h1.582a.378.378,0,0,1,.278.112.378.378,0,0,1,.112.278.366.366,0,0,1-.112.269.378.378,0,0,1-.278.112H60.664V-1.4a.383.383,0,0,1-.112.273A.37.37,0,0,1,60.273-1.006Z" transform="translate(398 63)" fill="#12335e"/>
  </g>
</svg>
