<svg xmlns="http://www.w3.org/2000/svg" width="30" height="30" viewBox="0 0 30 30">
  <g id="Group_43" data-name="Group 43" transform="translate(-575.292 -549.838)">
    <g id="Group_49" data-name="Group 49" transform="translate(575.292 549.838)">
      <g id="Group_43-2" data-name="Group 43">
        <path id="Path_70" data-name="Path 70" d="M575.292,569.381c.05-.187.094-.376.152-.559a3.541,3.541,0,0,1,2.544-2.45c.093-.026.186-.05.243-.065-1.394-6.087.253-10.995,5.46-14.559a12.37,12.37,0,0,1,13.49.184c4.991,3.6,6.539,8.441,5.155,14.377a3.588,3.588,0,0,1,1.573.716,3.457,3.457,0,0,1,1.365,2.746q.032,3.3,0,6.594a3.562,3.562,0,0,1-3.258,3.448c-.195.014-.39.022-.585.022q-4.116,0-8.229,0a2.273,2.273,0,0,1-.408-.025.578.578,0,0,1,.022-1.136,2.367,2.367,0,0,1,.35-.014c2.772,0,5.544-.005,8.317,0a2.487,2.487,0,0,0,2.147-.982,2.29,2.29,0,0,0,.476-1.395c.005-2.159.012-4.317,0-6.476a2.375,2.375,0,0,0-2.354-2.367c-1.835-.015-3.67-.005-5.5-.006H579a2.4,2.4,0,0,0-2.44,1.763,2.875,2.875,0,0,0-.092.726q-.011,3.12,0,6.241a2.393,2.393,0,0,0,2.3,2.48c.145.01.293.012.438.012q4.057,0,8.112,0c.088,0,.176,0,.264,0a.591.591,0,0,1,.655.563.6.6,0,0,1-.643.612c-.049,0-.1,0-.146,0-2.8,0-5.6.005-8.4,0a3.587,3.587,0,0,1-3.6-2.558c-.062-.195-.1-.4-.156-.595Zm20.876-13.269a22.009,22.009,0,0,1,.91,5.772h4.588a11.457,11.457,0,0,0-2.727-6.836Zm-17.232,5.774h4.56a21.932,21.932,0,0,1,.908-5.775l-2.752-1.057A11.088,11.088,0,0,0,578.937,561.886Zm6.6-5.468a19.862,19.862,0,0,0-.865,5.471h5.012V556.9Zm5.343,5.463H595.9a20.021,20.021,0,0,0-.87-5.463l-4.147.479Zm-6.249,1.211.312,3.147h4.731v-3.147Zm10.993,3.15.308-3.14h-5.047v3.14Zm1.19.005h4.231a10.816,10.816,0,0,0,.607-3.146h-4.548ZM583.466,563.1h-4.55a11.027,11.027,0,0,0,.607,3.138h4.234Zm6.221-7.391v-4.573c-1.474.207-3.039,2.206-3.7,4.15Zm4.9-.423a1.5,1.5,0,0,0-.044-.209,10.065,10.065,0,0,0-1.359-2.356,4.664,4.664,0,0,0-1.778-1.445c-.162-.069-.334-.113-.51-.17v4.6Zm3.487-1.144a10.836,10.836,0,0,0-4.2-2.483,12.547,12.547,0,0,1,1.9,3.318Zm-13.307.823c.312-.621.571-1.2.89-1.75s.7-1.062,1.065-1.6a11.494,11.494,0,0,0-4.219,2.527Z" transform="translate(-575.292 -549.838)" fill="#333"/>
      </g>
      <g id="Group_44" data-name="Group 44" transform="translate(3.293 20.197)">
        <path id="Path_71" data-name="Path 71" d="M582.311,573.371v-2.453c0-.252-.008-.5,0-.754a.578.578,0,1,1,1.155.01c.009.231,0,.464,0,.7V575.1c0,.382-.129.6-.409.687-.26.086-.492-.01-.712-.308q-1.168-1.586-2.334-3.173l-.257-.344c-.007.158-.015.246-.015.333,0,.918,0,1.836,0,2.753a1.406,1.406,0,0,1-.042.372.564.564,0,0,1-.577.394.572.572,0,0,1-.53-.49.633.633,0,0,1-.007-.087c0-1.69,0-3.38,0-5.071a.552.552,0,0,1,.559-.578.645.645,0,0,1,.548.321q1.18,1.614,2.368,3.221l.19.254Z" transform="translate(-578.585 -569.588)" fill="#333"/>
      </g>
      <g id="Group_45" data-name="Group 45" transform="translate(14.901 20.198)">
        <path id="Path_72" data-name="Path 72" d="M591.179,573.75c.366-.4.666-.723.969-1.047a.6.6,0,0,1,1.013,0c.308.327.612.656.975,1.046V573.4q0-1.565,0-3.13c0-.424.225-.68.581-.676s.577.261.577.688c0,1.613,0,3.227,0,4.84a.617.617,0,0,1-.376.653.6.6,0,0,1-.718-.226c-.508-.554-1.019-1.1-1.548-1.677-.489.527-.961,1.035-1.431,1.544-.226.244-.44.513-.834.362s-.373-.489-.373-.825c0-1.565,0-3.13,0-4.7,0-.39.186-.624.507-.659.384-.042.649.222.651.666,0,1.043,0,2.087,0,3.13Z" transform="translate(-590.017 -569.589)" fill="#333"/>
      </g>
      <g id="Group_46" data-name="Group 46" transform="translate(21.813 20.183)">
        <path id="Path_73" data-name="Path 73" d="M598.689,575.818c-.406,0-.812,0-1.217,0a.592.592,0,0,1-.659-.578.584.584,0,0,1,.652-.58c.792,0,1.584.006,2.376-.005a.67.67,0,0,0,.693-.669.684.684,0,0,0-.689-.706c-.077-.005-.154,0-.232,0-.338,0-.676.005-1.014-.006a1.836,1.836,0,0,1-1.786-1.778,1.807,1.807,0,0,1,1.692-1.89c.866-.046,1.737-.026,2.606-.015a.553.553,0,0,1,.583.585.559.559,0,0,1-.606.562c-.724.01-1.449,0-2.173.005a2.344,2.344,0,0,0-.375.022.673.673,0,0,0-.566.7.658.658,0,0,0,.622.646c.424.02.85,0,1.275.013a1.847,1.847,0,0,1,.236,3.676,5.271,5.271,0,0,1-.723.023C599.152,575.821,598.921,575.818,598.689,575.818Z" transform="translate(-596.812 -569.574)" fill="#333"/>
      </g>
      <g id="Group_47" data-name="Group 47" transform="translate(9.8 20.184)">
        <path id="Path_74" data-name="Path 74" d="M586.16,570.739v1.378h.594c.387,0,.774-.011,1.16.005a.575.575,0,1,1-.011,1.15c-.569.009-1.139,0-1.733,0v1.383h.927c.271,0,.542-.006.812,0a.577.577,0,0,1,.585.561.566.566,0,0,1-.557.589q-1.188.021-2.378,0c-.37-.006-.573-.267-.574-.692q0-1.711,0-3.422c0-.473,0-.947,0-1.421s.208-.689.663-.7q1.1-.013,2.2,0a.581.581,0,1,1,0,1.154C587.291,570.744,586.732,570.739,586.16,570.739Z" transform="translate(-584.983 -569.575)" fill="#333"/>
      </g>
      <g id="Group_48" data-name="Group 48" transform="translate(14.417 28.843)">
        <path id="Path_75" data-name="Path 75" d="M590.146,578.234a.572.572,0,1,1-.583.558A.574.574,0,0,1,590.146,578.234Z" transform="translate(-589.563 -578.234)" fill="#333"/>
      </g>
    </g>
  </g>
</svg>
