<svg xmlns="http://www.w3.org/2000/svg" width="21.917" height="16.437" viewBox="0 0 21.917 16.437">
  <path id="ticket" d="M21.926,10.958v4.109a1.388,1.388,0,0,1-1.369,1.369H8.228v-.685a.685.685,0,0,0-1.37,0v.685H1.379a1.316,1.316,0,0,1-.963-.406,1.316,1.316,0,0,1-.406-.963V10.958a2.641,2.641,0,0,0,1.937-.8,2.637,2.637,0,0,0,.8-1.937,2.643,2.643,0,0,0-.8-1.937,2.638,2.638,0,0,0-1.939-.8V1.37A1.316,1.316,0,0,1,.414.407,1.316,1.316,0,0,1,1.377,0H6.857V.686a.657.657,0,0,0,.2.481.671.671,0,0,0,.963,0,.659.659,0,0,0,.2-.481V0H20.555a1.316,1.316,0,0,1,.963.406,1.316,1.316,0,0,1,.406.963V5.479a2.74,2.74,0,0,0-2.74,2.74,2.74,2.74,0,0,0,2.74,2.74ZM8.227,3.424a.685.685,0,0,0-1.37,0v1.37a.685.685,0,0,0,1.37,0Zm0,4.109a.685.685,0,0,0-1.37,0V8.9a.685.685,0,0,0,1.37,0Zm0,4.109a.685.685,0,0,0-1.37,0v1.37a.685.685,0,0,0,1.37,0Z" transform="translate(-0.008)" fill="#10325b"/>
</svg>
