<svg xmlns="http://www.w3.org/2000/svg" width="18.662" height="12.857" viewBox="0 0 18.662 12.857">
  <g id="Group_964" data-name="Group 964" transform="translate(-724 -680.242)">
    <path id="Path_58" data-name="Path 58" d="M11.573,7.875c-3.349,0-5.99,2.259-9.147,5.951a.744.744,0,0,0,0,.951c2.7,3.2,5.086,5.955,9.151,5.955,4.015,0,7.027-3.469,9.168-5.982a.738.738,0,0,0,.021-.924C18.579,10.991,15.559,7.875,11.573,7.875Zm.183,10.442a3.892,3.892,0,0,1-3.92-4.2,3.9,3.9,0,0,1,3.57-3.826,3.892,3.892,0,0,1,3.92,4.2A3.9,3.9,0,0,1,11.756,18.317Z" transform="translate(721.748 672.367)" fill="#d0d0d0"/>
    <path id="Path_59" data-name="Path 59" d="M15.962,14.189a2,2,0,0,1,.119-.685c-.038,0-.077,0-.119,0a2.594,2.594,0,1,0,2.462,2.6c0-.053,0-.105,0-.158a1.632,1.632,0,0,1-.7.158A1.839,1.839,0,0,1,15.962,14.189Z" transform="translate(717.368 670.57)" fill="#d0d0d0"/>
  </g>
</svg>
