<svg xmlns="http://www.w3.org/2000/svg" width="34.674" height="28.25" viewBox="0 0 34.674 28.25">
  <path id="weixin-brands" d="M36.465,40.549a9.206,9.206,0,0,1,1.185.069C36.6,35.675,31.3,32,25.275,32,18.516,32,13,36.59,13,42.427c0,3.367,1.847,6.147,4.911,8.3l-1.217,3.694,4.287-2.15a21.039,21.039,0,0,0,4.3.612c.391,0,.763-.019,1.154-.05a8.672,8.672,0,0,1-.391-2.572c-.006-5.352,4.6-9.709,10.421-9.709Zm-6.588-3.335a1.532,1.532,0,0,1,0,3.064,1.559,1.559,0,1,1,0-3.064Zm-8.6,3.064a1.559,1.559,0,1,1,0-3.064,1.532,1.532,0,1,1,0,3.064Zm26.4,9.841c0-4.911-4.911-8.908-10.427-8.908-5.844,0-10.427,4-10.427,8.908s4.59,8.908,10.427,8.908a15.958,15.958,0,0,0,3.694-.624l3.367,1.847-.933-3.064C45.846,55.333,47.674,52.88,47.674,50.119ZM33.861,48.574a1.226,1.226,0,0,1,0-2.452,1.258,1.258,0,1,1,0,2.452Zm6.752,0a1.226,1.226,0,0,1,0-2.452,1.258,1.258,0,1,1,0,2.452Z" transform="translate(-13 -32)" fill="#01ce0d"/>
</svg>
